Latin-Mizra-Regular.ufo
<glyph name="quotesingle" format="1">
  <advance width="154"/>
  <unicode hex="0027"/>
  <outline>
    <contour>
      <point x="111" y="319" type="line"/>
      <point x="111" y="409"/>
      <point x="112" y="474"/>
      <point x="123" y="549" type="curve"/>
      <point x="92" y="549"/>
      <point x="69" y="545"/>
      <point x="42" y="538" type="curve"/>
      <point x="42" y="374" type="line"/>
      <point x="59" y="358"/>
      <point x="76" y="340"/>
      <point x="92" y="319" type="curve"/>
    </contour>
  </outline>
</glyph>
<glyph name="parenleft" format="1">
  <advance width="316"/>
  <unicode hex="0028"/>
  <outline>
    <contour>
      <point x="303" y="-104"/>
      <point x="305" y="-90"/>
      <point x="305" y="-77" type="curve" smooth="yes"/>
      <point x="305" y="-62"/>
      <point x="303" y="-48"/>
      <point x="300" y="-33" type="curve"/>
      <point x="257" y="-39"/>
      <point x="222" y="-42"/>
      <point x="192" y="-42" type="curve"/>
      <point x="163" y="-32"/>
      <point x="149" y="116"/>
      <point x="149" y="264" type="curve" smooth="yes"/>
      <point x="149" y="413"/>
      <point x="163" y="561"/>
      <point x="192" y="571" type="curve"/>
      <point x="222" y="571"/>
      <point x="257" y="568"/>
      <point x="300" y="562" type="curve"/>
      <point x="303" y="577"/>
      <point x="305" y="591"/>
      <point x="305" y="605" type="curve" smooth="yes"/>
      <point x="305" y="618"/>
      <point x="303" y="632"/>
      <point x="300" y="647" type="curve"/>
      <point x="135" y="647"/>
      <point x="52" y="506"/>
      <point x="52" y="264" type="curve" smooth="yes"/>
      <point x="52" y="23"/>
      <point x="135" y="-119"/>
      <point x="300" y="-119" type="curve"/>
    </contour>
  </outline>
</glyph>
<glyph name="comma" format="1">
  <advance width="211"/>
  <unicode hex="002C"/>
  <outline>
    <contour>
      <point x="110" y="-64"/>
      <point x="150" y="7"/>
      <point x="157" y="84" type="curve"/>
      <point x="133" y="109" type="line"/>
      <point x="108" y="109"/>
      <point x="70" y="99"/>
      <point x="48" y="85" type="curve"/>
      <point x="58" y="60"/>
      <point x="65" y="30"/>
      <point x="65" y="-3" type="curve" smooth="yes"/>
      <point x="65" y="-41"/>
      <point x="53" y="-80"/>
      <point x="32" y="-107" type="curve"/>
      <point x="43" y="-119" type="line"/>
    </contour>
  </outline>
</glyph>
<glyph name="hyphen" format="1">
  <advance width="426"/>
  <unicode hex="002D"/>
  <outline>
    <contour>
      <point x="96" y="151"/>
      <point x="159" y="160"/>
      <point x="218" y="160" type="curve" smooth="yes"/>
      <point x="266" y="160"/>
      <point x="314" y="159"/>
      <point x="368" y="155" type="curve"/>
      <point x="368" y="190"/>
      <point x="365" y="220"/>
      <point x="354" y="255" type="curve"/>
      <point x="328" y="245"/>
      <point x="266" y="236"/>
      <point x="207" y="236" type="curve" smooth="yes"/>
      <point x="159" y="236"/>
      <point x="111" y="237"/>
      <point x="58" y="241" type="curve"/>
      <point x="58" y="206"/>
      <point x="61" y="176"/>
      <point x="71" y="141" type="curve"/>
    </contour>
  </outline>
</glyph>
<glyph name="period" format="1">
  <advance width="210"/>
  <unicode hex="002E"/>
  <outline>
    <contour>
      <point x="132" y="7"/>
      <point x="155" y="31"/>
      <point x="177" y="57" type="curve"/>
      <point x="150" y="80"/>
      <point x="127" y="103"/>
      <point x="105" y="130" type="curve"/>
      <point x="78" y="108"/>
      <point x="54" y="85"/>
      <point x="32" y="57" type="curve"/>
      <point x="59" y="35"/>
      <point x="82" y="12"/>
      <point x="105" y="-15" type="curve"/>
    </contour>
  </outline>
</glyph>
<glyph name="slash" format="1">
  <advance width="338"/>
  <unicode hex="002F"/>
  <outline>
    <contour>
      <point x="104" y="-87"/>
      <point x="117" y="-83"/>
      <point x="130" y="-78" type="curve"/>
      <point x="135" y="14"/>
      <point x="245" y="467"/>
      <point x="284" y="605" type="curve"/>
      <point x="270" y="610"/>
      <point x="258" y="614"/>
      <point x="246" y="614" type="curve" smooth="yes"/>
      <point x="233" y="614"/>
      <point x="220" y="610"/>
      <point x="207" y="605" type="curve"/>
      <point x="202" y="514"/>
      <point x="92" y="60"/>
      <point x="53" y="-78" type="curve"/>
      <point x="67" y="-83"/>
      <point x="80" y="-87"/>
      <point x="91" y="-87" type="curve" smooth="yes"/>
    </contour>
  </outline>
</glyph>
<glyph name="three" format="1">
  <advance width="489"/>
  <unicode hex="0033"/>
  <outline>
    <contour>
      <point x="369" y="-11"/>
      <point x="447" y="46"/>
      <point x="447" y="152" type="curve" smooth="yes"/>
      <point x="447" y="240"/>
      <point x="377" y="302"/>
      <point x="277" y="304" type="curve"/>
      <point x="368" y="376" type="line" smooth="yes"/>
      <point x="418" y="417"/>
      <point x="435" y="442"/>
      <point x="435" y="479" type="curve" smooth="yes"/>
      <point x="435" y="508"/>
      <point x="421" y="534"/>
      <point x="396" y="546" type="curve"/>
      <point x="361" y="524"/>
      <point x="312" y="516"/>
      <point x="208" y="516" type="curve" smooth="yes"/>
      <point x="142" y="516"/>
      <point x="90" y="520"/>
      <point x="66" y="527" type="curve"/>
      <point x="66" y="497"/>
      <point x="73" y="455"/>
      <point x="84" y="426" type="curve"/>
      <point x="107" y="439"/>
      <point x="134" y="444"/>
      <point x="182" y="444" type="curve" smooth="yes"/>
      <point x="304" y="444"/>
      <point x="370" y="443"/>
      <point x="375" y="441" type="curve"/>
      <point x="179" y="284" type="line" smooth="yes"/>
      <point x="167" y="274"/>
      <point x="152" y="260"/>
      <point x="145" y="243" type="curve"/>
      <point x="145" y="236"/>
      <point x="164" y="223"/>
      <point x="175" y="223" type="curve"/>
      <point x="190" y="251"/>
      <point x="225" y="269"/>
      <point x="263" y="269" type="curve"/>
      <point x="320" y="249"/>
      <point x="352" y="207"/>
      <point x="352" y="152" type="curve" smooth="yes"/>
      <point x="352" y="84"/>
      <point x="302" y="44"/>
      <point x="217" y="44" type="curve" smooth="yes"/>
      <point x="152" y="44"/>
      <point x="92" y="67"/>
      <point x="59" y="105" type="curve"/>
      <point x="47" y="72"/>
      <point x="42" y="53"/>
      <point x="42" y="35" type="curve"/>
      <point x="91" y="5"/>
      <point x="154" y="-11"/>
      <point x="221" y="-11" type="curve" smooth="yes"/>
    </contour>
  </outline>
</glyph>
<glyph name="six" format="1">
  <advance width="503"/>
  <unicode hex="0036"/>
  <outline>
    <contour>
      <point x="374" y="-9"/>
      <point x="463" y="64"/>
      <point x="463" y="168" type="curve" smooth="yes"/>
      <point x="463" y="268"/>
      <point x="392" y="335"/>
      <point x="287" y="335" type="curve" smooth="yes"/>
      <point x="237" y="335"/>
      <point x="190" y="320"/>
      <point x="146" y="291" type="curve"/>
      <point x="158" y="392"/>
      <point x="199" y="458"/>
      <point x="263" y="479" type="curve"/>
      <point x="294" y="479"/>
      <point x="354" y="448"/>
      <point x="401" y="408" type="curve"/>
      <point x="417" y="431"/>
      <point x="431" y="478"/>
      <point x="431" y="509" type="curve"/>
      <point x="398" y="525"/>
      <point x="357" y="533"/>
      <point x="310" y="533" type="curve" smooth="yes"/>
      <point x="133" y="533"/>
      <point x="40" y="426"/>
      <point x="40" y="223" type="curve" smooth="yes"/>
      <point x="40" y="84"/>
      <point x="123" y="-9"/>
      <point x="247" y="-9" type="curve" smooth="yes"/>
    </contour>
    <contour>
      <point x="183" y="47"/>
      <point x="142" y="111"/>
      <point x="142" y="221" type="curve" smooth="yes"/>
      <point x="142" y="231" type="line"/>
      <point x="169" y="252"/>
      <point x="202" y="267"/>
      <point x="237" y="277" type="curve"/>
      <point x="313" y="277"/>
      <point x="361" y="236"/>
      <point x="361" y="171" type="curve" smooth="yes"/>
      <point x="361" y="96"/>
      <point x="319" y="47"/>
      <point x="254" y="47" type="curve" smooth="yes"/>
    </contour>
  </outline>
</glyph>
<glyph name="seven" format="1">
  <advance width="451"/>
  <unicode hex="0037"/>
  <outline>
    <contour>
      <point x="223" y="87"/>
      <point x="369" y="371"/>
      <point x="390" y="412" type="curve" smooth="yes"/>
      <point x="409" y="448"/>
      <point x="419" y="469"/>
      <point x="419" y="499" type="curve" smooth="yes"/>
      <point x="419" y="520"/>
      <point x="409" y="537"/>
      <point x="387" y="546" type="curve"/>
      <point x="349" y="522"/>
      <point x="297" y="516"/>
      <point x="221" y="516" type="curve" smooth="yes"/>
      <point x="143" y="516"/>
      <point x="68" y="520"/>
      <point x="32" y="527" type="curve"/>
      <point x="32" y="496"/>
      <point x="39" y="455"/>
      <point x="50" y="426" type="curve"/>
      <point x="71" y="438"/>
      <point x="97" y="444"/>
      <point x="146" y="444" type="curve" smooth="yes"/>
      <point x="212" y="444"/>
      <point x="280" y="443"/>
      <point x="340" y="442" type="curve"/>
      <point x="230" y="223"/>
      <point x="123" y="85"/>
      <point x="71" y="25" type="curve"/>
      <point x="103" y="1"/>
      <point x="137" y="-6"/>
      <point x="180" y="-6" type="curve"/>
    </contour>
  </outline>
</glyph>
<glyph name="greater" format="1">
  <advance width="533"/>
  <unicode hex="003E"/>
  <outline>
    <contour>
      <point x="199" y="127"/>
      <point x="363" y="194"/>
      <point x="460" y="227" type="curve"/>
      <point x="462" y="240"/>
      <point x="463" y="253"/>
      <point x="463" y="266" type="curve" smooth="yes"/>
      <point x="463" y="278"/>
      <point x="462" y="291"/>
      <point x="460" y="304" type="curve"/>
      <point x="363" y="337"/>
      <point x="199" y="404"/>
      <point x="104" y="448" type="curve"/>
      <point x="87" y="425"/>
      <point x="79" y="403"/>
      <point x="74" y="375" type="curve"/>
      <point x="362" y="266" type="line"/>
      <point x="74" y="156" type="line"/>
      <point x="78" y="132"/>
      <point x="86" y="105"/>
      <point x="104" y="83" type="curve"/>
    </contour>
  </outline>
</glyph>
<glyph name="question" format="1">
  <advance width="383"/>
  <unicode hex="003F"/>
  <outline>
    <contour>
      <point x="241" y="218"/>
      <point x="341" y="279"/>
      <point x="341" y="387" type="curve" smooth="yes"/>
      <point x="341" y="491"/>
      <point x="283" y="547"/>
      <point x="173" y="547" type="curve" smooth="yes"/>
      <point x="116" y="547"/>
      <point x="66" y="531"/>
      <point x="21" y="501" type="curve"/>
      <point x="21" y="474"/>
      <point x="25" y="455"/>
      <point x="35" y="431" type="curve"/>
      <point x="62" y="469"/>
      <point x="105" y="492"/>
      <point x="153" y="492" type="curve" smooth="yes"/>
      <point x="211" y="492"/>
      <point x="246" y="455"/>
      <point x="246" y="388" type="curve" smooth="yes"/>
      <point x="246" y="325"/>
      <point x="209" y="275"/>
      <point x="139" y="249" type="curve"/>
      <point x="155" y="209" type="line"/>
    </contour>
    <contour>
      <point x="191" y="7"/>
      <point x="215" y="31"/>
      <point x="237" y="57" type="curve"/>
      <point x="210" y="80"/>
      <point x="187" y="103"/>
      <point x="164" y="130" type="curve"/>
      <point x="138" y="108"/>
      <point x="114" y="85"/>
      <point x="92" y="57" type="curve"/>
      <point x="119" y="35"/>
      <point x="142" y="12"/>
      <point x="164" y="-15" type="curve"/>
    </contour>
  </outline>
</glyph>
<glyph name="A" format="1">
  <advance width="504"/>
  <unicode hex="0041"/>
  <outline>
    <contour>
      <point x="463" y="-5"/>
      <point x="481" y="-3"/>
      <point x="499" y="2" type="curve"/>
      <point x="457" y="75"/>
      <point x="333" y="411"/>
      <point x="294" y="529" type="curve"/>
      <point x="267" y="535"/>
      <point x="240" y="535"/>
      <point x="210" y="529" type="curve"/>
      <point x="171" y="411"/>
      <point x="46" y="75"/>
      <point x="5" y="2" type="curve"/>
      <point x="19" y="-2"/>
      <point x="32" y="-4"/>
      <point x="45" y="-4" type="curve" smooth="yes"/>
      <point x="55" y="-4"/>
      <point x="66" y="-2"/>
      <point x="79" y="2" type="curve"/>
      <point x="89" y="32"/>
      <point x="105" y="79"/>
      <point x="124" y="131" type="curve"/>
      <point x="146" y="135"/>
      <point x="179" y="136"/>
      <point x="225" y="136" type="curve" smooth="yes"/>
      <point x="264" y="136"/>
      <point x="308" y="135"/>
      <point x="343" y="132" type="curve"/>
      <point x="362" y="79"/>
      <point x="378" y="32"/>
      <point x="388" y="2" type="curve"/>
      <point x="410" y="-3"/>
      <point x="429" y="-5"/>
      <point x="446" y="-5" type="curve" smooth="yes"/>
    </contour>
    <contour>
      <point x="227" y="191"/>
      <point x="182" y="192"/>
      <point x="148" y="194" type="curve"/>
      <point x="178" y="275"/>
      <point x="209" y="359"/>
      <point x="234" y="415" type="curve"/>
      <point x="255" y="366"/>
      <point x="289" y="277"/>
      <point x="321" y="192" type="curve"/>
      <point x="305" y="191"/>
      <point x="285" y="191"/>
      <point x="263" y="191" type="curve" smooth="yes"/>
    </contour>
    <contour>
      <point x="499" y="2" type="move" name="ogonek"/>
    </contour>
    <contour>
      <point x="253" y="0" type="move" name="bottom"/>
    </contour>
    <contour>
      <point x="253" y="527" type="move" name="top"/>
    </contour>
  </outline>
</glyph>
<glyph name="C" format="1">
  <advance width="488"/>
  <unicode hex="0043"/>
  <outline>
    <contour>
      <point x="345" y="-11"/>
      <point x="425" y="25"/>
      <point x="468" y="78" type="curve"/>
      <point x="461" y="103" type="line"/>
      <point x="420" y="79"/>
      <point x="363" y="67"/>
      <point x="300" y="67" type="curve" smooth="yes"/>
      <point x="208" y="67"/>
      <point x="137" y="126"/>
      <point x="137" y="269" type="curve" smooth="yes"/>
      <point x="137" y="368"/>
      <point x="194" y="467"/>
      <point x="262" y="484" type="curve"/>
      <point x="298" y="484"/>
      <point x="371" y="454"/>
      <point x="427" y="415" type="curve"/>
      <point x="442" y="438"/>
      <point x="454" y="481"/>
      <point x="454" y="509" type="curve"/>
      <point x="413" y="525"/>
      <point x="364" y="533"/>
      <point x="309" y="533" type="curve" smooth="yes"/>
      <point x="152" y="533"/>
      <point x="42" y="413"/>
      <point x="42" y="241" type="curve" smooth="yes"/>
      <point x="42" y="79"/>
      <point x="124" y="-11"/>
      <point x="270" y="-11" type="curve" smooth="yes"/>
    </contour>
    <contour>
      <point x="263" y="527" type="move" name="top"/>
    </contour>
    <contour>
      <point x="243" y="0" type="move" name="bottom"/>
    </contour>
  </outline>
</glyph>
<glyph name="E" format="1">
  <advance width="476"/>
  <unicode hex="0045"/>
  <outline>
    <contour>
      <point x="106" y="2"/>
      <point x="147" y="4"/>
      <point x="227" y="4" type="curve" smooth="yes"/>
      <point x="296" y="4"/>
      <point x="365" y="2"/>
      <point x="412" y="-3" type="curve"/>
      <point x="425" y="13"/>
      <point x="433" y="65"/>
      <point x="433" y="98" type="curve"/>
      <point x="394" y="81"/>
      <point x="330" y="71"/>
      <point x="273" y="71" type="curve" smooth="yes"/>
      <point x="236" y="71"/>
      <point x="196" y="75"/>
      <point x="168" y="81" type="curve"/>
      <point x="164" y="114"/>
      <point x="163" y="160"/>
      <point x="163" y="234" type="curve"/>
      <point x="220" y="237"/>
      <point x="317" y="232"/>
      <point x="377" y="228" type="curve"/>
      <point x="379" y="240"/>
      <point x="381" y="255"/>
      <point x="381" y="266" type="curve" smooth="yes"/>
      <point x="381" y="279"/>
      <point x="379" y="293"/>
      <point x="377" y="303" type="curve"/>
      <point x="340" y="296"/>
      <point x="316" y="292"/>
      <point x="247" y="292" type="curve" smooth="yes"/>
      <point x="220" y="292"/>
      <point x="191" y="294"/>
      <point x="164" y="295" type="curve"/>
      <point x="166" y="347"/>
      <point x="168" y="400"/>
      <point x="169" y="445" type="curve"/>
      <point x="197" y="450"/>
      <point x="234" y="453"/>
      <point x="268" y="453" type="curve" smooth="yes"/>
      <point x="318" y="453"/>
      <point x="374" y="444"/>
      <point x="408" y="426" type="curve"/>
      <point x="421" y="443"/>
      <point x="429" y="494"/>
      <point x="429" y="527" type="curve"/>
      <point x="376" y="522"/>
      <point x="299" y="520"/>
      <point x="223" y="520" type="curve" smooth="yes"/>
      <point x="161" y="520"/>
      <point x="100" y="522"/>
      <point x="62" y="527" type="curve"/>
      <point x="74" y="483"/>
      <point x="78" y="416"/>
      <point x="78" y="300" type="curve" smooth="yes"/>
      <point x="78" y="174"/>
      <point x="77" y="131"/>
      <point x="67" y="-3" type="curve"/>
    </contour>
    <contour>
      <point x="412" y="17" type="move" name="ogonek"/>
    </contour>
    <contour>
      <point x="247" y="527" type="move" name="top"/>
    </contour>
    <contour>
      <point x="20" y="527" type="move" name="topleft"/>
    </contour>
    <contour>
      <point x="239" y="0" type="move" name="bottom"/>
    </contour>
  </outline>
</glyph>
<glyph name="G" format="1">
  <advance width="531"/>
  <unicode hex="0047"/>
  <outline>
    <contour>
      <point x="345" y="-11"/>
      <point x="424" y="17"/>
      <point x="468" y="58" type="curve"/>
      <point x="469" y="139"/>
      <point x="473" y="223"/>
      <point x="478" y="268" type="curve"/>
      <point x="457" y="272"/>
      <point x="437" y="274"/>
      <point x="420" y="274" type="curve" smooth="yes"/>
      <point x="405" y="274"/>
      <point x="387" y="272"/>
      <point x="370" y="268" type="curve"/>
      <point x="382" y="242"/>
      <point x="387" y="174"/>
      <point x="386" y="67" type="curve"/>
      <point x="363" y="60"/>
      <point x="338" y="57"/>
      <point x="311" y="57" type="curve" smooth="yes"/>
      <point x="187" y="57"/>
      <point x="137" y="118"/>
      <point x="137" y="269" type="curve" smooth="yes"/>
      <point x="137" y="368"/>
      <point x="194" y="467"/>
      <point x="262" y="484" type="curve"/>
      <point x="301" y="484"/>
      <point x="377" y="454"/>
      <point x="437" y="415" type="curve"/>
      <point x="452" y="438"/>
      <point x="464" y="481"/>
      <point x="464" y="509" type="curve"/>
      <point x="421" y="525"/>
      <point x="367" y="533"/>
      <point x="309" y="533" type="curve" smooth="yes"/>
      <point x="152" y="533"/>
      <point x="42" y="413"/>
      <point x="42" y="241" type="curve" smooth="yes"/>
      <point x="42" y="79"/>
      <point x="123" y="-11"/>
      <point x="270" y="-11" type="curve" smooth="yes"/>
    </contour>
    <contour>
      <point x="286" y="527" type="move" name="top"/>
    </contour>
    <contour>
      <point x="266" y="0" type="move" name="bottom"/>
    </contour>
  </outline>
</glyph>
<glyph name="J" format="1">
  <advance width="302"/>
  <unicode hex="004A"/>
  <outline>
    <contour>
      <point x="188" y="-12"/>
      <point x="242" y="68"/>
      <point x="242" y="227" type="curve" smooth="yes"/>
      <point x="242" y="397"/>
      <point x="244" y="479"/>
      <point x="249" y="527" type="curve"/>
      <point x="228" y="531"/>
      <point x="209" y="533"/>
      <point x="192" y="533" type="curve" smooth="yes"/>
      <point x="174" y="533"/>
      <point x="155" y="531"/>
      <point x="137" y="527" type="curve"/>
      <point x="150" y="495"/>
      <point x="157" y="414"/>
      <point x="157" y="300" type="curve" smooth="yes"/>
      <point x="157" y="85"/>
      <point x="153" y="49"/>
      <point x="126" y="30" type="curve"/>
      <point x="98" y="30"/>
      <point x="53" y="53"/>
      <point x="9" y="91" type="curve"/>
      <point x="-3" y="65"/>
      <point x="-15" y="22"/>
      <point x="-15" y="2" type="curve"/>
      <point x="13" y="-7"/>
      <point x="45" y="-12"/>
      <point x="79" y="-12" type="curve" smooth="yes"/>
    </contour>
    <contour>
      <point x="192" y="527" type="move" name="top"/>
    </contour>
    <contour>
      <point x="143" y="0" type="move" name="bottom"/>
    </contour>
  </outline>
</glyph>
<glyph name="L" format="1">
  <advance width="413"/>
  <unicode hex="004C"/>
  <outline>
    <contour>
      <point x="105" y="2"/>
      <point x="147" y="4"/>
      <point x="227" y="4" type="curve" smooth="yes"/>
      <point x="287" y="4"/>
      <point x="342" y="1"/>
      <point x="381" y="-3" type="curve"/>
      <point x="392" y="11"/>
      <point x="402" y="59"/>
      <point x="402" y="100" type="curve"/>
      <point x="371" y="84"/>
      <point x="319" y="73"/>
      <point x="272" y="73" type="curve" smooth="yes"/>
      <point x="237" y="73"/>
      <point x="197" y="76"/>
      <point x="168" y="82" type="curve"/>
      <point x="164" y="113"/>
      <point x="163" y="155"/>
      <point x="163" y="227" type="curve" smooth="yes"/>
      <point x="163" y="324"/>
      <point x="168" y="456"/>
      <point x="174" y="527" type="curve"/>
      <point x="153" y="531"/>
      <point x="134" y="533"/>
      <point x="117" y="533" type="curve" smooth="yes"/>
      <point x="99" y="533"/>
      <point x="80" y="531"/>
      <point x="62" y="527" type="curve"/>
      <point x="73" y="498"/>
      <point x="78" y="428"/>
      <point x="78" y="302" type="curve" smooth="yes"/>
      <point x="78" y="183"/>
      <point x="78" y="162"/>
      <point x="67" y="-3" type="curve"/>
    </contour>
    <contour>
      <point x="137" y="264" type="move" name="center"/>
    </contour>
    <contour>
      <point x="116" y="527" type="move" name="top"/>
    </contour>
    <contour>
      <point x="292" y="407" type="move" name="topright"/>
    </contour>
    <contour>
      <point x="206" y="0" type="move" name="bottom"/>
    </contour>
  </outline>
</glyph>
<glyph name="P" format="1">
  <advance width="481"/>
  <unicode hex="0050"/>
  <outline>
    <contour>
      <point x="142" y="-6"/>
      <point x="161" y="-4"/>
      <point x="179" y="0" type="curve"/>
      <point x="170" y="25"/>
      <point x="165" y="81"/>
      <point x="164" y="167" type="curve"/>
      <point x="186" y="162"/>
      <point x="211" y="160"/>
      <point x="236" y="160" type="curve" smooth="yes"/>
      <point x="364" y="160"/>
      <point x="453" y="240"/>
      <point x="453" y="356" type="curve" smooth="yes"/>
      <point x="453" y="469"/>
      <point x="379" y="532"/>
      <point x="246" y="532" type="curve" smooth="yes"/>
      <point x="176" y="532"/>
      <point x="102" y="521"/>
      <point x="62" y="505" type="curve"/>
      <point x="73" y="478"/>
      <point x="78" y="409"/>
      <point x="78" y="302" type="curve" smooth="yes"/>
      <point x="78" y="197"/>
      <point x="73" y="66"/>
      <point x="67" y="0" type="curve"/>
      <point x="89" y="-4"/>
      <point x="107" y="-6"/>
      <point x="124" y="-6" type="curve" smooth="yes"/>
    </contour>
    <contour>
      <point x="248" y="211"/>
      <point x="207" y="220"/>
      <point x="164" y="233" type="curve"/>
      <point x="164" y="309"/>
      <point x="167" y="397"/>
      <point x="171" y="460" type="curve"/>
      <point x="189" y="465"/>
      <point x="207" y="467"/>
      <point x="226" y="467" type="curve" smooth="yes"/>
      <point x="310" y="467"/>
      <point x="359" y="431"/>
      <point x="359" y="348" type="curve" smooth="yes"/>
      <point x="359" y="285"/>
      <point x="321" y="231"/>
      <point x="274" y="211" type="curve"/>
    </contour>
    <contour>
      <point x="243" y="527" type="move" name="top"/>
    </contour>
    <contour>
      <point x="243" y="0" type="move" name="bottom"/>
    </contour>
  </outline>
</glyph>
<glyph name="Q" format="1">
  <advance width="611"/>
  <unicode hex="0051"/>
  <outline>
    <contour>
      <point x="403" y="-134"/>
      <point x="439" y="-129"/>
      <point x="474" y="-113" type="curve"/>
      <point x="439" y="-90"/>
      <point x="393" y="-38"/>
      <point x="344" y="25" type="curve"/>
      <point x="262" y="25" type="line"/>
      <point x="308" y="-47"/>
      <point x="343" y="-105"/>
      <point x="358" y="-134" type="curve"/>
    </contour>
    <component base="O"/>
  </outline>
</glyph>
<glyph name="S" format="1">
  <advance width="448"/>
  <unicode hex="0053"/>
  <outline>
    <contour>
      <point x="345" y="-11"/>
      <point x="410" y="44"/>
      <point x="410" y="137" type="curve" smooth="yes"/>
      <point x="410" y="301"/>
      <point x="139" y="296"/>
      <point x="139" y="413" type="curve" smooth="yes"/>
      <point x="139" y="454"/>
      <point x="175" y="480"/>
      <point x="199" y="485" type="curve"/>
      <point x="238" y="485"/>
      <point x="304" y="454"/>
      <point x="359" y="415" type="curve"/>
      <point x="373" y="436"/>
      <point x="386" y="480"/>
      <point x="386" y="509" type="curve"/>
      <point x="347" y="525"/>
      <point x="299" y="533"/>
      <point x="244" y="533" type="curve" smooth="yes"/>
      <point x="121" y="533"/>
      <point x="44" y="480"/>
      <point x="44" y="403" type="curve" smooth="yes"/>
      <point x="44" y="235"/>
      <point x="316" y="235"/>
      <point x="316" y="125" type="curve" smooth="yes"/>
      <point x="316" y="74"/>
      <point x="277" y="44"/>
      <point x="204" y="44" type="curve" smooth="yes"/>
      <point x="142" y="44"/>
      <point x="86" y="63"/>
      <point x="54" y="95" type="curve"/>
      <point x="42" y="73"/>
      <point x="37" y="54"/>
      <point x="37" y="25" type="curve"/>
      <point x="82" y="3"/>
      <point x="141" y="-11"/>
      <point x="211" y="-11" type="curve" smooth="yes"/>
    </contour>
    <contour>
      <point x="213" y="527" type="move" name="top"/>
    </contour>
    <contour>
      <point x="213" y="0" type="move" name="bottom"/>
    </contour>
  </outline>
</glyph>
<glyph name="T" format="1">
  <advance width="444"/>
  <unicode hex="0054"/>
  <outline>
    <contour>
      <point x="243" y="-6"/>
      <point x="262" y="-4"/>
      <point x="281" y="0" type="curve"/>
      <point x="270" y="30"/>
      <point x="265" y="107"/>
      <point x="265" y="227" type="curve" smooth="yes"/>
      <point x="265" y="299"/>
      <point x="268" y="385"/>
      <point x="271" y="449" type="curve"/>
      <point x="333" y="447"/>
      <point x="393" y="444"/>
      <point x="429" y="441" type="curve"/>
      <point x="432" y="459"/>
      <point x="434" y="474"/>
      <point x="434" y="487" type="curve" smooth="yes"/>
      <point x="434" y="501"/>
      <point x="432" y="516"/>
      <point x="429" y="530" type="curve"/>
      <point x="405" y="521"/>
      <point x="345" y="517"/>
      <point x="251" y="517" type="curve" smooth="yes"/>
      <point x="169" y="517"/>
      <point x="67" y="521"/>
      <point x="16" y="526" type="curve"/>
      <point x="13" y="508"/>
      <point x="11" y="492"/>
      <point x="11" y="479" type="curve" smooth="yes"/>
      <point x="11" y="465"/>
      <point x="13" y="450"/>
      <point x="16" y="437" type="curve"/>
      <point x="38" y="444"/>
      <point x="91" y="449"/>
      <point x="174" y="450" type="curve"/>
      <point x="178" y="413"/>
      <point x="180" y="364"/>
      <point x="180" y="300" type="curve" smooth="yes"/>
      <point x="180" y="195"/>
      <point x="175" y="65"/>
      <point x="169" y="0" type="curve"/>
      <point x="190" y="-4"/>
      <point x="209" y="-6"/>
      <point x="226" y="-6" type="curve" smooth="yes"/>
    </contour>
    <contour>
      <point x="222" y="264" type="move" name="center"/>
    </contour>
    <contour>
      <point x="222" y="0" type="move" name="bottom"/>
    </contour>
    <contour>
      <point x="222" y="527" type="move" name="top"/>
    </contour>
  </outline>
</glyph>
<glyph name="U" format="1">
  <advance width="530"/>
  <unicode hex="0055"/>
  <outline>
    <contour>
      <point x="427" y="-5"/>
      <point x="472" y="98"/>
      <point x="472" y="205" type="curve" smooth="yes"/>
      <point x="472" y="305"/>
      <point x="476" y="453"/>
      <point x="480" y="527" type="curve"/>
      <point x="464" y="531"/>
      <point x="450" y="533"/>
      <point x="438" y="533" type="curve" smooth="yes"/>
      <point x="425" y="533"/>
      <point x="411" y="531"/>
      <point x="398" y="527" type="curve"/>
      <point x="404" y="482"/>
      <point x="406" y="317"/>
      <point x="406" y="187" type="curve" smooth="yes"/>
      <point x="406" y="123"/>
      <point x="380" y="65"/>
      <point x="281" y="65" type="curve" smooth="yes"/>
      <point x="207" y="65"/>
      <point x="163" y="105"/>
      <point x="163" y="200" type="curve" smooth="yes"/>
      <point x="163" y="313"/>
      <point x="166" y="455"/>
      <point x="169" y="527" type="curve"/>
      <point x="146" y="531"/>
      <point x="126" y="533"/>
      <point x="108" y="533" type="curve" smooth="yes"/>
      <point x="89" y="533"/>
      <point x="69" y="531"/>
      <point x="50" y="527" type="curve"/>
      <point x="61" y="484"/>
      <point x="66" y="323"/>
      <point x="66" y="200" type="curve" smooth="yes"/>
      <point x="66" y="69"/>
      <point x="138" y="-5"/>
      <point x="261" y="-5" type="curve" smooth="yes"/>
    </contour>
    <contour>
      <point x="359" y="11" type="move" name="ogonek"/>
    </contour>
    <contour>
      <point x="285" y="527" type="move" name="top"/>
    </contour>
    <contour>
      <point x="510" y="527" type="move" name="topright"/>
    </contour>
    <contour>
      <point x="265" y="0" type="move" name="bottom"/>
    </contour>
  </outline>
</glyph>
<glyph name="V" format="1">
  <advance width="493"/>
  <unicode hex="0056"/>
  <outline>
    <contour>
      <point x="325" y="27" type="line"/>
      <point x="366" y="168"/>
      <point x="444" y="409"/>
      <point x="488" y="533" type="curve"/>
      <point x="452" y="533"/>
      <point x="425" y="530"/>
      <point x="395" y="522" type="curve"/>
      <point x="407" y="488"/>
      <point x="372" y="353"/>
      <point x="279" y="74" type="curve"/>
      <point x="260" y="106"/>
      <point x="236" y="163"/>
      <point x="203" y="260" type="curve" smooth="yes"/>
      <point x="175" y="350"/>
      <point x="144" y="471"/>
      <point x="134" y="533" type="curve"/>
      <point x="83" y="533"/>
      <point x="44" y="526"/>
      <point x="5" y="512" type="curve"/>
      <point x="127" y="277"/>
      <point x="145" y="-9"/>
      <point x="256" y="-9" type="curve"/>
    </contour>
    <contour>
      <point x="247" y="527" type="move" name="top"/>
    </contour>
    <contour>
      <point x="247" y="0" type="move" name="bottom"/>
    </contour>
  </outline>
</glyph>
<glyph name="W" format="1">
  <advance width="782"/>
  <unicode hex="0057"/>
  <outline>
    <contour>
      <point x="280" y="27" type="line"/>
      <point x="309" y="116"/>
      <point x="351" y="245"/>
      <point x="390" y="360" type="curve"/>
      <point x="451" y="170"/>
      <point x="475" y="-9"/>
      <point x="563" y="-9" type="curve"/>
      <point x="605" y="27" type="line"/>
      <point x="648" y="168"/>
      <point x="729" y="409"/>
      <point x="777" y="533" type="curve"/>
      <point x="743" y="533"/>
      <point x="717" y="530"/>
      <point x="688" y="522" type="curve"/>
      <point x="698" y="488"/>
      <point x="659" y="360"/>
      <point x="571" y="93" type="curve"/>
      <point x="556" y="127"/>
      <point x="537" y="180"/>
      <point x="512" y="260" type="curve" smooth="yes"/>
      <point x="488" y="353"/>
      <point x="461" y="473"/>
      <point x="453" y="533" type="curve"/>
      <point x="416" y="533"/>
      <point x="369" y="527"/>
      <point x="330" y="512" type="curve"/>
      <point x="356" y="453" type="line"/>
      <point x="340" y="383"/>
      <point x="305" y="268"/>
      <point x="247" y="93" type="curve"/>
      <point x="232" y="127"/>
      <point x="212" y="180"/>
      <point x="187" y="260" type="curve" smooth="yes"/>
      <point x="163" y="350"/>
      <point x="135" y="471"/>
      <point x="128" y="533" type="curve"/>
      <point x="80" y="533"/>
      <point x="43" y="526"/>
      <point x="5" y="512" type="curve"/>
      <point x="117" y="284"/>
      <point x="126" y="-9"/>
      <point x="238" y="-9" type="curve"/>
    </contour>
    <contour>
      <point x="391" y="527" type="move" name="top"/>
    </contour>
    <contour>
      <point x="391" y="0" type="move" name="bottom"/>
    </contour>
  </outline>
</glyph>
<glyph name="Y" format="1">
  <advance width="464"/>
  <unicode hex="0059"/>
  <outline>
    <contour>
      <point x="255" y="-6"/>
      <point x="274" y="-4"/>
      <point x="292" y="0" type="curve"/>
      <point x="281" y="25"/>
      <point x="276" y="88"/>
      <point x="276" y="188" type="curve"/>
      <point x="321" y="288"/>
      <point x="392" y="436"/>
      <point x="459" y="533" type="curve"/>
      <point x="424" y="533"/>
      <point x="394" y="532"/>
      <point x="355" y="527" type="curve"/>
      <point x="353" y="493"/>
      <point x="323" y="409"/>
      <point x="250" y="268" type="curve"/>
      <point x="183" y="391"/>
      <point x="135" y="509"/>
      <point x="128" y="533" type="curve"/>
      <point x="81" y="533"/>
      <point x="42" y="528"/>
      <point x="5" y="512" type="curve"/>
      <point x="30" y="488"/>
      <point x="124" y="335"/>
      <point x="190" y="187" type="curve"/>
      <point x="189" y="116"/>
      <point x="185" y="42"/>
      <point x="180" y="0" type="curve"/>
      <point x="202" y="-4"/>
      <point x="220" y="-6"/>
      <point x="237" y="-6" type="curve" smooth="yes"/>
    </contour>
    <contour>
      <point x="253" y="527" type="move" name="top"/>
    </contour>
    <contour>
      <point x="233" y="0" type="move" name="bottom"/>
    </contour>
    <contour>
      <point x="20" y="527" type="move" name="topleft"/>
    </contour>
  </outline>
</glyph>
<glyph name="Z" format="1">
  <advance width="440"/>
  <unicode hex="005A"/>
  <outline>
    <contour>
      <point x="407" y="15"/>
      <point x="415" y="65"/>
      <point x="415" y="96" type="curve"/>
      <point x="375" y="79"/>
      <point x="309" y="70"/>
      <point x="251" y="70" type="curve" smooth="yes"/>
      <point x="207" y="70"/>
      <point x="158" y="75"/>
      <point x="128" y="79" type="curve"/>
      <point x="203" y="185"/>
      <point x="375" y="412"/>
      <point x="405" y="455" type="curve" smooth="yes"/>
      <point x="413" y="467"/>
      <point x="419" y="483"/>
      <point x="419" y="498" type="curve" smooth="yes"/>
      <point x="419" y="519"/>
      <point x="409" y="536"/>
      <point x="387" y="546" type="curve"/>
      <point x="349" y="522"/>
      <point x="297" y="516"/>
      <point x="221" y="516" type="curve" smooth="yes"/>
      <point x="143" y="516"/>
      <point x="68" y="520"/>
      <point x="32" y="527" type="curve"/>
      <point x="32" y="496"/>
      <point x="39" y="455"/>
      <point x="50" y="426" type="curve"/>
      <point x="71" y="438"/>
      <point x="97" y="444"/>
      <point x="146" y="444" type="curve" smooth="yes"/>
      <point x="211" y="444"/>
      <point x="282" y="441"/>
      <point x="333" y="441" type="curve"/>
      <point x="201" y="253"/>
      <point x="79" y="95"/>
      <point x="21" y="36" type="curve"/>
      <point x="21" y="0" type="line"/>
      <point x="86" y="4"/>
      <point x="346" y="4"/>
      <point x="395" y="-5" type="curve"/>
    </contour>
    <contour>
      <point x="221" y="527" type="move" name="top"/>
    </contour>
    <contour>
      <point x="221" y="0" type="move" name="bottom"/>
    </contour>
  </outline>
</glyph>
<glyph name="asciicircum" format="1">
  <advance width="362"/>
  <unicode hex="005E"/>
  <outline>
    <contour>
      <point x="181" y="507" type="line"/>
      <point x="297" y="361" type="line"/>
      <point x="317" y="375"/>
      <point x="334" y="391"/>
      <point x="352" y="415" type="curve"/>
      <point x="296" y="472"/>
      <point x="250" y="519"/>
      <point x="191" y="594" type="curve"/>
      <point x="171" y="594" type="line"/>
      <point x="112" y="519"/>
      <point x="66" y="472"/>
      <point x="10" y="415" type="curve"/>
      <point x="28" y="391"/>
      <point x="45" y="375"/>
      <point x="65" y="361" type="curve"/>
    </contour>
  </outline>
</glyph>
<glyph name="underscore" format="1">
  <advance width="512"/>
  <unicode hex="005F"/>
  <outline>
    <contour>
      <point x="101" y="-84"/>
      <point x="185" y="-75"/>
      <point x="263" y="-75" type="curve" smooth="yes"/>
      <point x="323" y="-75"/>
      <point x="385" y="-76"/>
      <point x="454" y="-80" type="curve"/>
      <point x="454" y="-46"/>
      <point x="451" y="-16"/>
      <point x="442" y="19" type="curve"/>
      <point x="408" y="9"/>
      <point x="325" y="0"/>
      <point x="248" y="0" type="curve" smooth="yes"/>
      <point x="187" y="0"/>
      <point x="126" y="1"/>
      <point x="58" y="5" type="curve"/>
      <point x="58" y="-30"/>
      <point x="61" y="-60"/>
      <point x="69" y="-94" type="curve"/>
    </contour>
  </outline>
</glyph>
<glyph name="b" format="1">
  <advance width="482"/>
  <unicode hex="0062"/>
  <outline>
    <contour>
      <point x="370" y="-9"/>
      <point x="439" y="70"/>
      <point x="439" y="212" type="curve" smooth="yes"/>
      <point x="439" y="333"/>
      <point x="377" y="410"/>
      <point x="279" y="410" type="curve" smooth="yes"/>
      <point x="236" y="410"/>
      <point x="191" y="393"/>
      <point x="154" y="364" type="curve"/>
      <point x="156" y="436"/>
      <point x="160" y="509"/>
      <point x="164" y="547" type="curve"/>
      <point x="120" y="547"/>
      <point x="88" y="541"/>
      <point x="54" y="527" type="curve"/>
      <point x="66" y="488"/>
      <point x="71" y="427"/>
      <point x="71" y="333" type="curve" smooth="yes"/>
      <point x="71" y="249"/>
      <point x="68" y="74"/>
      <point x="62" y="5" type="curve"/>
      <point x="75" y="2"/>
      <point x="85" y="0"/>
      <point x="94" y="0" type="curve"/>
      <point x="119" y="42" type="line"/>
      <point x="146" y="12"/>
      <point x="191" y="-9"/>
      <point x="244" y="-9" type="curve" smooth="yes"/>
    </contour>
    <contour>
      <point x="207" y="42"/>
      <point x="181" y="54"/>
      <point x="159" y="75" type="curve"/>
      <point x="154" y="101"/>
      <point x="152" y="134"/>
      <point x="152" y="192" type="curve" smooth="yes"/>
      <point x="152" y="225"/>
      <point x="153" y="271"/>
      <point x="154" y="320" type="curve"/>
      <point x="186" y="336"/>
      <point x="223" y="345"/>
      <point x="255" y="345" type="curve"/>
      <point x="314" y="324"/>
      <point x="349" y="273"/>
      <point x="349" y="178" type="curve" smooth="yes"/>
      <point x="349" y="89"/>
      <point x="310" y="42"/>
      <point x="235" y="42" type="curve" smooth="yes"/>
    </contour>
    <contour>
      <point x="241" y="407" type="move" name="top"/>
    </contour>
    <contour>
      <point x="241" y="0" type="move" name="bottom"/>
    </contour>
  </outline>
</glyph>
<glyph name="c" format="1">
  <advance width="412"/>
  <unicode hex="0063"/>
  <outline>
    <contour>
      <point x="278" y="-11"/>
      <point x="347" y="26"/>
      <point x="386" y="80" type="curve"/>
      <point x="378" y="97" type="line"/>
      <point x="345" y="73"/>
      <point x="301" y="60"/>
      <point x="253" y="60" type="curve" smooth="yes"/>
      <point x="168" y="60"/>
      <point x="134" y="106"/>
      <point x="134" y="220" type="curve" smooth="yes"/>
      <point x="134" y="291"/>
      <point x="165" y="354"/>
      <point x="204" y="376" type="curve"/>
      <point x="236" y="376"/>
      <point x="287" y="351"/>
      <point x="340" y="305" type="curve"/>
      <point x="355" y="329"/>
      <point x="372" y="371"/>
      <point x="372" y="394" type="curve"/>
      <point x="326" y="416"/>
      <point x="280" y="418"/>
      <point x="252" y="418" type="curve" smooth="yes"/>
      <point x="129" y="418"/>
      <point x="43" y="325"/>
      <point x="43" y="191" type="curve" smooth="yes"/>
      <point x="43" y="61"/>
      <point x="104" y="-11"/>
      <point x="211" y="-11" type="curve" smooth="yes"/>
    </contour>
    <contour>
      <point x="216" y="407" type="move" name="top"/>
    </contour>
    <contour>
      <point x="206" y="0" type="move" name="bottom"/>
    </contour>
  </outline>
</glyph>
<glyph name="f" format="1">
  <advance width="317"/>
  <unicode hex="0066"/>
  <outline>
    <contour>
      <point x="169" y="-77"/>
      <point x="193" y="-35"/>
      <point x="193" y="63" type="curve" smooth="yes"/>
      <point x="193" y="111"/>
      <point x="186" y="184"/>
      <point x="186" y="276" type="curve" smooth="yes"/>
      <point x="186" y="346" type="line"/>
      <point x="226" y="345"/>
      <point x="253" y="341"/>
      <point x="275" y="334" type="curve"/>
      <point x="287" y="358"/>
      <point x="292" y="377"/>
      <point x="292" y="404" type="curve"/>
      <point x="269" y="399"/>
      <point x="233" y="397"/>
      <point x="188" y="396" type="curve"/>
      <point x="190" y="493"/>
      <point x="199" y="527"/>
      <point x="221" y="543" type="curve"/>
      <point x="248" y="544"/>
      <point x="296" y="518"/>
      <point x="335" y="481" type="curve"/>
      <point x="351" y="510"/>
      <point x="365" y="552"/>
      <point x="365" y="572" type="curve"/>
      <point x="338" y="580"/>
      <point x="305" y="585"/>
      <point x="271" y="585" type="curve" smooth="yes"/>
      <point x="180" y="585"/>
      <point x="114" y="512"/>
      <point x="98" y="402" type="curve"/>
      <point x="81" y="389"/>
      <point x="62" y="379"/>
      <point x="41" y="368" type="curve"/>
      <point x="41" y="350"/>
      <point x="51" y="344"/>
      <point x="98" y="343" type="curve"/>
      <point x="114" y="-43"/>
      <point x="110" y="-80"/>
      <point x="53" y="-149" type="curve"/>
      <point x="64" y="-159" type="line"/>
    </contour>
    <contour>
      <point x="145" y="407" type="move" name="top"/>
    </contour>
    <contour>
      <point x="145" y="0" type="move" name="bottom"/>
    </contour>
  </outline>
</glyph>
<glyph name="h" format="1">
  <advance width="494"/>
  <unicode hex="0068"/>
  <outline>
    <contour>
      <point x="143" y="-6"/>
      <point x="162" y="-4"/>
      <point x="179" y="0" type="curve"/>
      <point x="165" y="30"/>
      <point x="158" y="108"/>
      <point x="158" y="229" type="curve" smooth="yes"/>
      <point x="158" y="255"/>
      <point x="159" y="282"/>
      <point x="161" y="311" type="curve"/>
      <point x="188" y="328"/>
      <point x="218" y="337"/>
      <point x="255" y="337" type="curve" smooth="yes"/>
      <point x="304" y="337"/>
      <point x="324" y="315"/>
      <point x="324" y="262" type="curve" smooth="yes"/>
      <point x="324" y="182"/>
      <point x="321" y="81"/>
      <point x="317" y="0" type="curve"/>
      <point x="340" y="-4"/>
      <point x="359" y="-6"/>
      <point x="377" y="-6" type="curve" smooth="yes"/>
      <point x="394" y="-6"/>
      <point x="411" y="-4"/>
      <point x="430" y="0" type="curve"/>
      <point x="417" y="29"/>
      <point x="410" y="82"/>
      <point x="410" y="150" type="curve" smooth="yes"/>
      <point x="410" y="181"/>
      <point x="414" y="251"/>
      <point x="414" y="280" type="curve" smooth="yes"/>
      <point x="414" y="374"/>
      <point x="373" y="418"/>
      <point x="297" y="418" type="curve" smooth="yes"/>
      <point x="247" y="418"/>
      <point x="197" y="393"/>
      <point x="160" y="353" type="curve"/>
      <point x="163" y="429"/>
      <point x="168" y="502"/>
      <point x="174" y="547" type="curve"/>
      <point x="131" y="547"/>
      <point x="98" y="541"/>
      <point x="64" y="527" type="curve"/>
      <point x="70" y="468"/>
      <point x="74" y="367"/>
      <point x="74" y="255" type="curve" smooth="yes"/>
      <point x="74" y="171"/>
      <point x="71" y="73"/>
      <point x="67" y="0" type="curve"/>
      <point x="89" y="-4"/>
      <point x="108" y="-6"/>
      <point x="125" y="-6" type="curve" smooth="yes"/>
    </contour>
    <contour>
      <point x="130" y="470" type="move" name="center"/>
    </contour>
    <contour>
      <point x="247" y="0" type="move" name="bottom"/>
    </contour>
    <contour>
      <point x="247" y="407" type="move" name="top"/>
    </contour>
  </outline>
</glyph>
<glyph name="l" format="1">
  <advance width="245"/>
  <unicode hex="006C"/>
  <outline>
    <contour>
      <point x="150" y="-9"/>
      <point x="179" y="0"/>
      <point x="201" y="27" type="curve"/>
      <point x="170" y="61"/>
      <point x="162" y="84"/>
      <point x="162" y="192" type="curve" smooth="yes"/>
      <point x="162" y="356"/>
      <point x="167" y="485"/>
      <point x="174" y="547" type="curve"/>
      <point x="136" y="547"/>
      <point x="103" y="543"/>
      <point x="64" y="527" type="curve"/>
      <point x="77" y="480"/>
      <point x="83" y="406"/>
      <point x="83" y="297" type="curve" smooth="yes"/>
      <point x="83" y="208"/>
      <point x="79" y="144"/>
      <point x="79" y="73" type="curve" smooth="yes"/>
      <point x="79" y="10"/>
      <point x="94" y="-9"/>
      <point x="133" y="-9" type="curve" smooth="yes"/>
    </contour>
    <contour>
      <point x="125" y="280" type="move" name="center"/>
    </contour>
    <contour>
      <point x="125" y="527" type="move" name="top"/>
    </contour>
    <contour>
      <point x="267" y="407" type="move" name="topright"/>
    </contour>
    <contour>
      <point x="125" y="0" type="move" name="bottom"/>
    </contour>
  </outline>
</glyph>
<glyph name="m" format="1">
  <advance width="763"/>
  <unicode hex="006D"/>
  <outline>
    <contour>
      <point x="171" y="-6"/>
      <point x="189" y="-4"/>
      <point x="208" y="0" type="curve"/>
      <point x="195" y="29"/>
      <point x="188" y="82"/>
      <point x="188" y="150" type="curve" smooth="yes"/>
      <point x="188" y="217"/>
      <point x="192" y="272"/>
      <point x="193" y="314" type="curve"/>
      <point x="217" y="330"/>
      <point x="245" y="337"/>
      <point x="278" y="337" type="curve" smooth="yes"/>
      <point x="328" y="337"/>
      <point x="348" y="315"/>
      <point x="348" y="262" type="curve" smooth="yes"/>
      <point x="348" y="169"/>
      <point x="345" y="69"/>
      <point x="341" y="0" type="curve"/>
      <point x="364" y="-4"/>
      <point x="383" y="-6"/>
      <point x="400" y="-6" type="curve" smooth="yes"/>
      <point x="418" y="-6"/>
      <point x="434" y="-4"/>
      <point x="453" y="0" type="curve"/>
      <point x="440" y="29"/>
      <point x="433" y="82"/>
      <point x="433" y="150" type="curve" smooth="yes"/>
      <point x="433" y="186"/>
      <point x="436" y="260"/>
      <point x="436" y="314" type="curve"/>
      <point x="461" y="329"/>
      <point x="490" y="337"/>
      <point x="523" y="337" type="curve" smooth="yes"/>
      <point x="573" y="337"/>
      <point x="593" y="315"/>
      <point x="593" y="262" type="curve" smooth="yes"/>
      <point x="593" y="169"/>
      <point x="590" y="69"/>
      <point x="586" y="0" type="curve"/>
      <point x="609" y="-4"/>
      <point x="628" y="-6"/>
      <point x="645" y="-6" type="curve" smooth="yes"/>
      <point x="663" y="-6"/>
      <point x="679" y="-4"/>
      <point x="698" y="0" type="curve"/>
      <point x="685" y="29"/>
      <point x="678" y="82"/>
      <point x="678" y="150" type="curve" smooth="yes"/>
      <point x="678" y="181"/>
      <point x="682" y="251"/>
      <point x="682" y="280" type="curve" smooth="yes"/>
      <point x="682" y="362"/>
      <point x="653" y="418"/>
      <point x="567" y="418" type="curve" smooth="yes"/>
      <point x="516" y="418"/>
      <point x="464" y="391"/>
      <point x="429" y="346" type="curve"/>
      <point x="415" y="391"/>
      <point x="382" y="418"/>
      <point x="322" y="418" type="curve" smooth="yes"/>
      <point x="275" y="418"/>
      <point x="226" y="394"/>
      <point x="190" y="355" type="curve"/>
      <point x="186" y="392"/>
      <point x="168" y="414"/>
      <point x="131" y="414" type="curve" smooth="yes"/>
      <point x="114" y="414"/>
      <point x="86" y="405"/>
      <point x="64" y="378" type="curve"/>
      <point x="95" y="344"/>
      <point x="103" y="321"/>
      <point x="103" y="213" type="curve" smooth="yes"/>
      <point x="103" y="139"/>
      <point x="100" y="57"/>
      <point x="96" y="0" type="curve"/>
      <point x="119" y="-4"/>
      <point x="136" y="-6"/>
      <point x="152" y="-6" type="curve" smooth="yes"/>
    </contour>
    <contour>
      <point x="383" y="407" type="move" name="top"/>
    </contour>
    <contour>
      <point x="383" y="0" type="move" name="bottom"/>
    </contour>
  </outline>
</glyph>
<glyph name="n" format="1">
  <advance width="521"/>
  <unicode hex="006E"/>
  <outline>
    <contour>
      <point x="172" y="-6"/>
      <point x="192" y="-4"/>
      <point x="211" y="0" type="curve"/>
      <point x="198" y="29"/>
      <point x="191" y="82"/>
      <point x="191" y="150" type="curve" smooth="yes"/>
      <point x="191" y="214"/>
      <point x="194" y="267"/>
      <point x="195" y="308" type="curve"/>
      <point x="219" y="323"/>
      <point x="247" y="330"/>
      <point x="281" y="330" type="curve" smooth="yes"/>
      <point x="329" y="330"/>
      <point x="349" y="308"/>
      <point x="349" y="255" type="curve" smooth="yes"/>
      <point x="349" y="165"/>
      <point x="346" y="67"/>
      <point x="342" y="0" type="curve"/>
      <point x="365" y="-4"/>
      <point x="385" y="-6"/>
      <point x="403" y="-6" type="curve" smooth="yes"/>
      <point x="422" y="-6"/>
      <point x="442" y="-4"/>
      <point x="461" y="0" type="curve"/>
      <point x="448" y="29"/>
      <point x="441" y="82"/>
      <point x="441" y="150" type="curve" smooth="yes"/>
      <point x="441" y="181"/>
      <point x="445" y="251"/>
      <point x="445" y="280" type="curve" smooth="yes"/>
      <point x="445" y="362"/>
      <point x="415" y="418"/>
      <point x="328" y="418" type="curve" smooth="yes"/>
      <point x="279" y="418"/>
      <point x="229" y="394"/>
      <point x="194" y="354" type="curve"/>
      <point x="189" y="392"/>
      <point x="170" y="414"/>
      <point x="132" y="414" type="curve" smooth="yes"/>
      <point x="114" y="414"/>
      <point x="84" y="405"/>
      <point x="60" y="378" type="curve"/>
      <point x="91" y="344"/>
      <point x="99" y="321"/>
      <point x="99" y="213" type="curve" smooth="yes"/>
      <point x="99" y="139"/>
      <point x="96" y="57"/>
      <point x="92" y="0" type="curve"/>
      <point x="115" y="-4"/>
      <point x="135" y="-6"/>
      <point x="153" y="-6" type="curve" smooth="yes"/>
    </contour>
    <contour>
      <point x="262" y="407" type="move" name="top"/>
    </contour>
    <contour>
      <point x="262" y="0" type="move" name="bottom"/>
    </contour>
  </outline>
</glyph>
<glyph name="o" format="1">
  <advance width="491"/>
  <unicode hex="006F"/>
  <outline>
    <contour>
      <point x="356" y="-11"/>
      <point x="448" y="82"/>
      <point x="448" y="215" type="curve" smooth="yes"/>
      <point x="448" y="337"/>
      <point x="373" y="418"/>
      <point x="260" y="418" type="curve" smooth="yes"/>
      <point x="132" y="418"/>
      <point x="42" y="325"/>
      <point x="42" y="192" type="curve" smooth="yes"/>
      <point x="42" y="70"/>
      <point x="116" y="-11"/>
      <point x="225" y="-11" type="curve" smooth="yes"/>
    </contour>
    <contour>
      <point x="178" y="31"/>
      <point x="128" y="93"/>
      <point x="128" y="200" type="curve" smooth="yes"/>
      <point x="128" y="289"/>
      <point x="177" y="346"/>
      <point x="255" y="346" type="curve"/>
      <point x="324" y="324"/>
      <point x="364" y="260"/>
      <point x="364" y="178" type="curve" smooth="yes"/>
      <point x="364" y="85"/>
      <point x="320" y="31"/>
      <point x="243" y="31" type="curve" smooth="yes"/>
    </contour>
    <contour>
      <point x="246" y="204" type="move" name="center"/>
    </contour>
    <contour>
      <point x="442" y="10" type="move" name="ogonek"/>
    </contour>
    <contour>
      <point x="246" y="407" type="move" name="top"/>
    </contour>
    <contour>
      <point x="471" y="407" type="move" name="topright"/>
    </contour>
    <contour>
      <point x="246" y="0" type="move" name="bottom"/>
    </contour>
  </outline>
</glyph>
<glyph name="p" format="1">
  <advance width="515"/>
  <unicode hex="0070"/>
  <outline>
    <contour>
      <point x="123" y="-180"/>
      <point x="158" y="-174"/>
      <point x="194" y="-160" type="curve"/>
      <point x="185" y="-121"/>
      <point x="179" y="-67"/>
      <point x="177" y="8" type="curve"/>
      <point x="202" y="-4"/>
      <point x="230" y="-9"/>
      <point x="260" y="-9" type="curve" smooth="yes"/>
      <point x="392" y="-9"/>
      <point x="470" y="73"/>
      <point x="470" y="212" type="curve" smooth="yes"/>
      <point x="470" y="344"/>
      <point x="413" y="413"/>
      <point x="305" y="413" type="curve" smooth="yes"/>
      <point x="260" y="413"/>
      <point x="213" y="393"/>
      <point x="178" y="362" type="curve"/>
      <point x="172" y="395"/>
      <point x="154" y="414"/>
      <point x="122" y="414" type="curve" smooth="yes"/>
      <point x="104" y="414"/>
      <point x="74" y="405"/>
      <point x="50" y="378" type="curve"/>
      <point x="81" y="344"/>
      <point x="89" y="321"/>
      <point x="89" y="213" type="curve" smooth="yes"/>
      <point x="89" y="49"/>
      <point x="84" y="-104"/>
      <point x="77" y="-180" type="curve"/>
    </contour>
    <contour>
      <point x="226" y="39"/>
      <point x="197" y="53"/>
      <point x="175" y="79" type="curve"/>
      <point x="175" y="112" type="line" smooth="yes"/>
      <point x="175" y="196"/>
      <point x="179" y="264"/>
      <point x="180" y="315" type="curve"/>
      <point x="208" y="329"/>
      <point x="245" y="339"/>
      <point x="278" y="339" type="curve"/>
      <point x="334" y="318"/>
      <point x="368" y="256"/>
      <point x="368" y="177" type="curve" smooth="yes"/>
      <point x="368" y="90"/>
      <point x="327" y="39"/>
      <point x="257" y="39" type="curve" smooth="yes"/>
    </contour>
    <contour>
      <point x="263" y="407" type="move" name="top"/>
    </contour>
    <contour>
      <point x="263" y="0" type="move" name="bottom"/>
    </contour>
  </outline>
</glyph>
<glyph name="s" format="1">
  <advance width="389"/>
  <unicode hex="0073"/>
  <outline>
    <contour>
      <point x="296" y="-11"/>
      <point x="358" y="32"/>
      <point x="358" y="107" type="curve" smooth="yes"/>
      <point x="358" y="248"/>
      <point x="132" y="235"/>
      <point x="132" y="328" type="curve" smooth="yes"/>
      <point x="132" y="350"/>
      <point x="154" y="369"/>
      <point x="186" y="376" type="curve"/>
      <point x="217" y="376"/>
      <point x="265" y="348"/>
      <point x="314" y="304" type="curve"/>
      <point x="331" y="333"/>
      <point x="344" y="374"/>
      <point x="344" y="394" type="curve"/>
      <point x="302" y="410"/>
      <point x="253" y="418"/>
      <point x="192" y="418" type="curve" smooth="yes"/>
      <point x="104" y="418"/>
      <point x="42" y="375"/>
      <point x="42" y="313" type="curve" smooth="yes"/>
      <point x="42" y="168"/>
      <point x="268" y="176"/>
      <point x="268" y="98" type="curve" smooth="yes"/>
      <point x="268" y="63"/>
      <point x="235" y="45"/>
      <point x="172" y="45" type="curve" smooth="yes"/>
      <point x="124" y="45"/>
      <point x="79" y="65"/>
      <point x="54" y="98" type="curve"/>
      <point x="41" y="71"/>
      <point x="36" y="51"/>
      <point x="36" y="25" type="curve"/>
      <point x="75" y="1"/>
      <point x="126" y="-11"/>
      <point x="187" y="-11" type="curve" smooth="yes"/>
    </contour>
    <contour>
      <point x="195" y="407" type="move" name="top"/>
    </contour>
    <contour>
      <point x="190" y="0" type="move" name="bottom"/>
    </contour>
  </outline>
</glyph>
<glyph name="t" format="1">
  <advance width="305"/>
  <unicode hex="0074"/>
  <outline>
    <contour>
      <point x="204" y="-9"/>
      <point x="250" y="16"/>
      <point x="275" y="53" type="curve"/>
      <point x="269" y="76" type="line"/>
      <point x="250" y="71"/>
      <point x="223" y="67"/>
      <point x="194" y="65" type="curve"/>
      <point x="184" y="112"/>
      <point x="180" y="183"/>
      <point x="180" y="252" type="curve" smooth="yes"/>
      <point x="180" y="285"/>
      <point x="181" y="316"/>
      <point x="183" y="346" type="curve"/>
      <point x="220" y="345"/>
      <point x="247" y="341"/>
      <point x="266" y="334" type="curve"/>
      <point x="278" y="356"/>
      <point x="283" y="375"/>
      <point x="283" y="404" type="curve"/>
      <point x="264" y="400"/>
      <point x="233" y="397"/>
      <point x="185" y="396" type="curve"/>
      <point x="184" y="421"/>
      <point x="182" y="447"/>
      <point x="180" y="466" type="curve"/>
      <point x="156" y="469" type="line"/>
      <point x="117" y="426"/>
      <point x="77" y="393"/>
      <point x="32" y="368" type="curve"/>
      <point x="32" y="349"/>
      <point x="46" y="343"/>
      <point x="99" y="343" type="curve"/>
      <point x="100" y="332"/>
      <point x="101" y="312"/>
      <point x="101" y="297" type="curve" smooth="yes"/>
      <point x="101" y="207"/>
      <point x="97" y="142"/>
      <point x="97" y="70" type="curve" smooth="yes"/>
      <point x="97" y="11"/>
      <point x="114" y="-9"/>
      <point x="160" y="-9" type="curve" smooth="yes"/>
    </contour>
    <contour>
      <point x="142" y="204" type="move" name="center"/>
    </contour>
    <contour>
      <point x="166" y="407" type="move" name="top"/>
    </contour>
    <contour>
      <point x="297" y="407" type="move" name="topright"/>
    </contour>
    <contour>
      <point x="156" y="0" type="move" name="bottom"/>
    </contour>
  </outline>
</glyph>
<glyph name="u" format="1">
  <advance width="495"/>
  <unicode hex="0075"/>
  <outline>
    <contour>
      <point x="246" y="-11"/>
      <point x="297" y="12"/>
      <point x="333" y="49" type="curve"/>
      <point x="339" y="23"/>
      <point x="352" y="3"/>
      <point x="372" y="-11" type="curve"/>
      <point x="401" y="-7"/>
      <point x="429" y="6"/>
      <point x="451" y="25" type="curve"/>
      <point x="420" y="57"/>
      <point x="412" y="79"/>
      <point x="412" y="127" type="curve" smooth="yes"/>
      <point x="412" y="167"/>
      <point x="418" y="321"/>
      <point x="424" y="417" type="curve"/>
      <point x="381" y="417"/>
      <point x="348" y="411"/>
      <point x="314" y="397" type="curve"/>
      <point x="327" y="368"/>
      <point x="333" y="324"/>
      <point x="333" y="257" type="curve" smooth="yes"/>
      <point x="333" y="225"/>
      <point x="329" y="153"/>
      <point x="329" y="83" type="curve"/>
      <point x="303" y="68"/>
      <point x="275" y="60"/>
      <point x="240" y="60" type="curve" smooth="yes"/>
      <point x="189" y="60"/>
      <point x="168" y="83"/>
      <point x="168" y="137" type="curve" smooth="yes"/>
      <point x="168" y="251"/>
      <point x="170" y="356"/>
      <point x="174" y="417" type="curve"/>
      <point x="131" y="417"/>
      <point x="98" y="411"/>
      <point x="64" y="397" type="curve"/>
      <point x="77" y="368"/>
      <point x="83" y="324"/>
      <point x="83" y="257" type="curve" smooth="yes"/>
      <point x="83" y="226"/>
      <point x="79" y="156"/>
      <point x="79" y="127" type="curve" smooth="yes"/>
      <point x="79" y="35"/>
      <point x="118" y="-11"/>
      <point x="194" y="-11" type="curve" smooth="yes"/>
    </contour>
    <contour>
      <point x="410" y="0" type="move" name="ogonek"/>
    </contour>
    <contour>
      <point x="255" y="407" type="move" name="top"/>
    </contour>
    <contour>
      <point x="513" y="407" type="move" name="topright"/>
    </contour>
    <contour>
      <point x="278" y="0" type="move" name="bottom"/>
    </contour>
  </outline>
</glyph>
<glyph name="x" format="1">
  <advance width="441"/>
  <unicode hex="0078"/>
  <outline>
    <contour>
      <point x="38" y="-6"/>
      <point x="70" y="-5"/>
      <point x="110" y="0" type="curve"/>
      <point x="114" y="18"/>
      <point x="128" y="45"/>
      <point x="206" y="151" type="curve"/>
      <point x="246" y="93"/>
      <point x="284" y="36"/>
      <point x="308" y="-6" type="curve"/>
      <point x="358" y="-6"/>
      <point x="397" y="-1"/>
      <point x="436" y="15" type="curve"/>
      <point x="405" y="42"/>
      <point x="336" y="130"/>
      <point x="270" y="223" type="curve"/>
      <point x="317" y="284"/>
      <point x="380" y="360"/>
      <point x="428" y="413" type="curve"/>
      <point x="395" y="413"/>
      <point x="363" y="411"/>
      <point x="323" y="402" type="curve"/>
      <point x="319" y="385"/>
      <point x="307" y="361"/>
      <point x="238" y="268" type="curve"/>
      <point x="201" y="322"/>
      <point x="167" y="373"/>
      <point x="144" y="413" type="curve"/>
      <point x="94" y="413"/>
      <point x="56" y="408"/>
      <point x="17" y="392" type="curve"/>
      <point x="47" y="365"/>
      <point x="111" y="284"/>
      <point x="173" y="197" type="curve"/>
      <point x="126" y="134"/>
      <point x="58" y="51"/>
      <point x="5" y="-6" type="curve"/>
    </contour>
    <contour>
      <point x="222" y="407" type="move" name="top"/>
    </contour>
    <contour>
      <point x="222" y="0" type="move" name="bottom"/>
    </contour>
  </outline>
</glyph>
<glyph name="y" format="1">
  <advance width="491"/>
  <unicode hex="0079"/>
  <outline>
    <contour>
      <point x="337" y="-180"/>
      <point x="425" y="-124"/>
      <point x="425" y="0" type="curve" smooth="yes"/>
      <point x="425" y="9"/>
      <point x="421" y="77"/>
      <point x="421" y="167" type="curve" smooth="yes"/>
      <point x="421" y="279"/>
      <point x="423" y="359"/>
      <point x="428" y="417" type="curve"/>
      <point x="385" y="417"/>
      <point x="352" y="411"/>
      <point x="318" y="397" type="curve"/>
      <point x="330" y="372"/>
      <point x="337" y="320"/>
      <point x="337" y="257" type="curve" smooth="yes"/>
      <point x="337" y="235"/>
      <point x="339" y="197"/>
      <point x="340" y="105" type="curve"/>
      <point x="311" y="87"/>
      <point x="281" y="79"/>
      <point x="242" y="79" type="curve" smooth="yes"/>
      <point x="193" y="79"/>
      <point x="173" y="101"/>
      <point x="173" y="154" type="curve" smooth="yes"/>
      <point x="173" y="280"/>
      <point x="174" y="369"/>
      <point x="178" y="417" type="curve"/>
      <point x="132" y="417"/>
      <point x="106" y="412"/>
      <point x="68" y="397" type="curve"/>
      <point x="81" y="368"/>
      <point x="87" y="323"/>
      <point x="87" y="255" type="curve" smooth="yes"/>
      <point x="87" y="229"/>
      <point x="83" y="168"/>
      <point x="83" y="147" type="curve" smooth="yes"/>
      <point x="83" y="85"/>
      <point x="101" y="44"/>
      <point x="136" y="24" type="curve"/>
      <point x="84" y="-23"/>
      <point x="54" y="-79"/>
      <point x="54" y="-139" type="curve"/>
      <point x="93" y="-165"/>
      <point x="148" y="-180"/>
      <point x="217" y="-180" type="curve" smooth="yes"/>
    </contour>
    <contour>
      <point x="185" y="-126"/>
      <point x="147" y="-109"/>
      <point x="123" y="-84" type="curve"/>
      <point x="129" y="-52"/>
      <point x="147" y="-19"/>
      <point x="172" y="11" type="curve"/>
      <point x="235" y="2"/>
      <point x="297" y="24"/>
      <point x="340" y="71" type="curve"/>
      <point x="340" y="24" type="line" smooth="yes"/>
      <point x="340" y="-94"/>
      <point x="294" y="-126"/>
      <point x="226" y="-126" type="curve" smooth="yes"/>
    </contour>
    <contour>
      <point x="245" y="407" type="move" name="top"/>
    </contour>
    <contour>
      <point x="245" y="0" type="move" name="bottom"/>
    </contour>
  </outline>
</glyph>
<glyph name="z" format="1">
  <advance width="417"/>
  <unicode hex="007A"/>
  <outline>
    <contour>
      <point x="369" y="12"/>
      <point x="377" y="62"/>
      <point x="377" y="93" type="curve"/>
      <point x="345" y="76"/>
      <point x="292" y="67"/>
      <point x="245" y="67" type="curve" smooth="yes"/>
      <point x="209" y="67"/>
      <point x="169" y="71"/>
      <point x="140" y="74" type="curve"/>
      <point x="215" y="176"/>
      <point x="350" y="317"/>
      <point x="366" y="352" type="curve"/>
      <point x="370" y="358"/>
      <point x="372" y="367"/>
      <point x="372" y="377" type="curve" smooth="yes"/>
      <point x="372" y="391"/>
      <point x="364" y="412"/>
      <point x="339" y="429" type="curve"/>
      <point x="309" y="405"/>
      <point x="291" y="399"/>
      <point x="201" y="399" type="curve" smooth="yes"/>
      <point x="149" y="399"/>
      <point x="82" y="403"/>
      <point x="40" y="410" type="curve"/>
      <point x="40" y="379"/>
      <point x="47" y="338"/>
      <point x="58" y="309" type="curve"/>
      <point x="79" y="321"/>
      <point x="106" y="327"/>
      <point x="154" y="327" type="curve" smooth="yes"/>
      <point x="211" y="327"/>
      <point x="257" y="325"/>
      <point x="291" y="324" type="curve"/>
      <point x="189" y="193"/>
      <point x="94" y="82"/>
      <point x="38" y="23" type="curve"/>
      <point x="38" y="-3" type="line"/>
      <point x="110" y="2"/>
      <point x="311" y="2"/>
      <point x="357" y="-8" type="curve"/>
    </contour>
    <contour>
      <point x="206" y="407" type="move" name="top"/>
    </contour>
    <contour>
      <point x="206" y="0" type="move" name="bottom"/>
    </contour>
  </outline>
</glyph>
<glyph name="bar" format="1">
  <advance width="342"/>
  <unicode hex="007C"/>
  <outline>
    <contour>
      <point x="197" y="-111"/>
      <point x="219" y="-109"/>
      <point x="239" y="-103" type="curve"/>
      <point x="228" y="-36"/>
      <point x="223" y="56"/>
      <point x="223" y="293" type="curve" smooth="yes"/>
      <point x="223" y="378"/>
      <point x="228" y="566"/>
      <point x="234" y="630" type="curve"/>
      <point x="209" y="636"/>
      <point x="188" y="639"/>
      <point x="169" y="639" type="curve" smooth="yes"/>
      <point x="147" y="639"/>
      <point x="123" y="636"/>
      <point x="102" y="630" type="curve"/>
      <point x="113" y="572"/>
      <point x="118" y="491"/>
      <point x="118" y="293" type="curve" smooth="yes"/>
      <point x="118" y="194"/>
      <point x="113" y="-21"/>
      <point x="107" y="-103" type="curve"/>
      <point x="134" y="-109"/>
      <point x="156" y="-111"/>
      <point x="177" y="-111" type="curve" smooth="yes"/>
    </contour>
  </outline>
</glyph>
<glyph name="asciitilde" format="1">
  <advance width="533"/>
  <unicode hex="007E"/>
  <outline>
    <contour>
      <point x="409" y="209"/>
      <point x="450" y="229"/>
      <point x="463" y="298" type="curve"/>
      <point x="444" y="307"/>
      <point x="421" y="313"/>
      <point x="401" y="315" type="curve"/>
      <point x="395" y="289"/>
      <point x="377" y="279"/>
      <point x="352" y="279" type="curve" smooth="yes"/>
      <point x="288" y="279"/>
      <point x="231" y="323"/>
      <point x="169" y="323" type="curve" smooth="yes"/>
      <point x="124" y="323"/>
      <point x="82" y="303"/>
      <point x="70" y="234" type="curve"/>
      <point x="89" y="225"/>
      <point x="112" y="219"/>
      <point x="132" y="217" type="curve"/>
      <point x="138" y="243"/>
      <point x="156" y="253"/>
      <point x="180" y="253" type="curve" smooth="yes"/>
      <point x="244" y="253"/>
      <point x="302" y="209"/>
      <point x="364" y="209" type="curve" smooth="yes"/>
    </contour>
  </outline>
</glyph>
<glyph name="sterling" format="1">
  <advance width="506"/>
  <unicode hex="00A3"/>
  <outline>
    <contour>
      <point x="442" y="12"/>
      <point x="451" y="63"/>
      <point x="451" y="103" type="curve"/>
      <point x="414" y="87"/>
      <point x="350" y="77"/>
      <point x="287" y="77" type="curve" smooth="yes"/>
      <point x="242" y="77"/>
      <point x="188" y="81"/>
      <point x="159" y="86" type="curve"/>
      <point x="189" y="128"/>
      <point x="197" y="174"/>
      <point x="197" y="220" type="curve" smooth="yes"/>
      <point x="197" y="286"/>
      <point x="179" y="352"/>
      <point x="179" y="401" type="curve" smooth="yes"/>
      <point x="179" y="445"/>
      <point x="203" y="472"/>
      <point x="250" y="480" type="curve"/>
      <point x="287" y="476"/>
      <point x="349" y="448"/>
      <point x="407" y="408" type="curve"/>
      <point x="423" y="431"/>
      <point x="437" y="478"/>
      <point x="437" y="509" type="curve"/>
      <point x="406" y="523"/>
      <point x="325" y="534"/>
      <point x="258" y="534" type="curve" smooth="yes"/>
      <point x="139" y="534"/>
      <point x="75" y="491"/>
      <point x="75" y="412" type="curve" smooth="yes"/>
      <point x="75" y="328"/>
      <point x="131" y="251"/>
      <point x="131" y="175" type="curve" smooth="yes"/>
      <point x="131" y="129"/>
      <point x="111" y="84"/>
      <point x="45" y="38" type="curve"/>
      <point x="45" y="0" type="line"/>
      <point x="84" y="2"/>
      <point x="146" y="3"/>
      <point x="212" y="3" type="curve" smooth="yes"/>
      <point x="304" y="3"/>
      <point x="407" y="0"/>
      <point x="430" y="-5" type="curve"/>
    </contour>
    <component base="uni0335"/>
  </outline>
</glyph>
<glyph name="brokenbar" format="1">
  <advance width="342"/>
  <unicode hex="00A6"/>
  <outline>
    <contour>
      <point x="136" y="313" type="line"/>
      <point x="166" y="342"/>
      <point x="194" y="366"/>
      <point x="223" y="387" type="curve"/>
      <point x="223" y="448"/>
      <point x="228" y="585"/>
      <point x="234" y="630" type="curve"/>
      <point x="209" y="636"/>
      <point x="188" y="639"/>
      <point x="169" y="639" type="curve" smooth="yes"/>
      <point x="147" y="639"/>
      <point x="123" y="636"/>
      <point x="102" y="630" type="curve"/>
      <point x="113" y="575"/>
      <point x="118" y="499"/>
      <point x="118" y="313" type="curve"/>
    </contour>
    <contour>
      <point x="190" y="-111"/>
      <point x="213" y="-108"/>
      <point x="234" y="-102" type="curve"/>
      <point x="223" y="-47"/>
      <point x="218" y="29"/>
      <point x="218" y="215" type="curve"/>
      <point x="201" y="215" type="line"/>
      <point x="171" y="186"/>
      <point x="142" y="162"/>
      <point x="113" y="141" type="curve"/>
      <point x="113" y="80"/>
      <point x="108" y="-57"/>
      <point x="102" y="-102" type="curve"/>
      <point x="127" y="-108"/>
      <point x="148" y="-111"/>
      <point x="167" y="-111" type="curve" smooth="yes"/>
    </contour>
  </outline>
</glyph>
<glyph name="copyright" format="1">
  <advance width="737"/>
  <unicode hex="00A9"/>
  <outline>
    <contour>
      <point x="538" y="-20"/>
      <point x="676" y="118"/>
      <point x="676" y="287" type="curve" smooth="yes"/>
      <point x="676" y="456"/>
      <point x="538" y="594"/>
      <point x="369" y="594" type="curve" smooth="yes"/>
      <point x="200" y="594"/>
      <point x="62" y="456"/>
      <point x="62" y="287" type="curve" smooth="yes"/>
      <point x="62" y="118"/>
      <point x="200" y="-20"/>
      <point x="369" y="-20" type="curve" smooth="yes"/>
    </contour>
    <contour>
      <point x="414" y="114"/>
      <point x="468" y="136"/>
      <point x="497" y="172" type="curve"/>
      <point x="494" y="186" type="line"/>
      <point x="465" y="171"/>
      <point x="426" y="162"/>
      <point x="381" y="162" type="curve" smooth="yes"/>
      <point x="316" y="162"/>
      <point x="262" y="200"/>
      <point x="262" y="296" type="curve" smooth="yes"/>
      <point x="262" y="363"/>
      <point x="303" y="427"/>
      <point x="353" y="439" type="curve"/>
      <point x="379" y="439"/>
      <point x="432" y="418"/>
      <point x="472" y="395" type="curve"/>
      <point x="482" y="409"/>
      <point x="488" y="435"/>
      <point x="488" y="452" type="curve"/>
      <point x="458" y="463"/>
      <point x="424" y="468"/>
      <point x="387" y="468" type="curve" smooth="yes"/>
      <point x="278" y="468"/>
      <point x="201" y="390"/>
      <point x="201" y="278" type="curve" smooth="yes"/>
      <point x="201" y="173"/>
      <point x="260" y="114"/>
      <point x="361" y="114" type="curve" smooth="yes"/>
    </contour>
    <contour>
      <point x="228" y="31"/>
      <point x="113" y="147"/>
      <point x="113" y="287" type="curve" smooth="yes"/>
      <point x="113" y="428"/>
      <point x="228" y="543"/>
      <point x="369" y="543" type="curve" smooth="yes"/>
      <point x="509" y="543"/>
      <point x="625" y="428"/>
      <point x="625" y="287" type="curve" smooth="yes"/>
      <point x="625" y="147"/>
      <point x="509" y="31"/>
      <point x="369" y="31" type="curve" smooth="yes"/>
    </contour>
  </outline>
</glyph>
<glyph name="ordfeminine" format="1">
  <advance width="347"/>
  <unicode hex="00AA"/>
  <outline>
    <contour>
      <point x="140" y="293"/>
      <point x="178" y="306"/>
      <point x="211" y="329" type="curve"/>
      <point x="216" y="314"/>
      <point x="225" y="302"/>
      <point x="238" y="293" type="curve"/>
      <point x="260" y="295"/>
      <point x="281" y="304"/>
      <point x="298" y="318" type="curve"/>
      <point x="276" y="339"/>
      <point x="270" y="354"/>
      <point x="270" y="386" type="curve" smooth="yes"/>
      <point x="270" y="416"/>
      <point x="277" y="450"/>
      <point x="277" y="485" type="curve" smooth="yes"/>
      <point x="277" y="541"/>
      <point x="242" y="572"/>
      <point x="181" y="572" type="curve" smooth="yes"/>
      <point x="135" y="572"/>
      <point x="88" y="546"/>
      <point x="61" y="507" type="curve"/>
      <point x="66" y="488" type="line"/>
      <point x="90" y="506"/>
      <point x="122" y="517"/>
      <point x="152" y="517" type="curve" smooth="yes"/>
      <point x="197" y="517"/>
      <point x="214" y="495"/>
      <point x="213" y="445" type="curve"/>
      <point x="103" y="438"/>
      <point x="48" y="408"/>
      <point x="48" y="354" type="curve" smooth="yes"/>
      <point x="48" y="318"/>
      <point x="74" y="293"/>
      <point x="109" y="293" type="curve" smooth="yes"/>
    </contour>
    <contour>
      <point x="127" y="335"/>
      <point x="117" y="350"/>
      <point x="117" y="365" type="curve" smooth="yes"/>
      <point x="117" y="398"/>
      <point x="152" y="419"/>
      <point x="213" y="422" type="curve"/>
      <point x="212" y="396"/>
      <point x="209" y="380"/>
      <point x="209" y="357" type="curve" smooth="yes"/>
      <point x="209" y="354" type="line"/>
      <point x="189" y="340"/>
      <point x="161" y="330"/>
      <point x="140" y="328" type="curve"/>
    </contour>
  </outline>
</glyph>
<glyph name="degree" format="1">
  <advance width="360"/>
  <unicode hex="00B0"/>
  <outline>
    <contour>
      <point x="259" y="345"/>
      <point x="322" y="404"/>
      <point x="322" y="489" type="curve" smooth="yes"/>
      <point x="322" y="566"/>
      <point x="271" y="617"/>
      <point x="195" y="617" type="curve" smooth="yes"/>
      <point x="103" y="617"/>
      <point x="38" y="558"/>
      <point x="38" y="475" type="curve" smooth="yes"/>
      <point x="38" y="397"/>
      <point x="90" y="345"/>
      <point x="170" y="345" type="curve" smooth="yes"/>
    </contour>
    <contour>
      <point x="131" y="391"/>
      <point x="99" y="430"/>
      <point x="99" y="488" type="curve" smooth="yes"/>
      <point x="99" y="544"/>
      <point x="137" y="584"/>
      <point x="187" y="584" type="curve"/>
      <point x="234" y="576"/>
      <point x="261" y="539"/>
      <point x="261" y="485" type="curve" smooth="yes"/>
      <point x="261" y="427"/>
      <point x="229" y="391"/>
      <point x="178" y="391" type="curve" smooth="yes"/>
    </contour>
  </outline>
</glyph>
<glyph name="paragraph" format="1">
  <advance width="441"/>
  <unicode hex="00B6"/>
  <outline>
    <contour>
      <point x="329" y="-6"/>
      <point x="352" y="-4"/>
      <point x="379" y="0" type="curve"/>
      <point x="373" y="59"/>
      <point x="368" y="176"/>
      <point x="368" y="270" type="curve" smooth="yes"/>
      <point x="368" y="394"/>
      <point x="372" y="474"/>
      <point x="381" y="505" type="curve"/>
      <point x="344" y="521"/>
      <point x="275" y="532"/>
      <point x="211" y="532" type="curve" smooth="yes"/>
      <point x="94" y="532"/>
      <point x="26" y="486"/>
      <point x="26" y="378" type="curve" smooth="yes"/>
      <point x="26" y="299"/>
      <point x="69" y="235"/>
      <point x="121" y="206" type="curve"/>
      <point x="154" y="206"/>
      <point x="210" y="220"/>
      <point x="266" y="241" type="curve"/>
      <point x="264" y="117"/>
      <point x="259" y="36"/>
      <point x="250" y="0" type="curve"/>
      <point x="269" y="-4"/>
      <point x="289" y="-6"/>
      <point x="308" y="-6" type="curve" smooth="yes"/>
    </contour>
  </outline>
</glyph>
<glyph name="ordmasculine" format="1">
  <advance width="385"/>
  <unicode hex="00BA"/>
  <outline>
    <contour>
      <point x="272" y="293"/>
      <point x="338" y="353"/>
      <point x="338" y="440" type="curve" smooth="yes"/>
      <point x="338" y="519"/>
      <point x="284" y="572"/>
      <point x="202" y="572" type="curve" smooth="yes"/>
      <point x="111" y="572"/>
      <point x="47" y="511"/>
      <point x="47" y="425" type="curve" smooth="yes"/>
      <point x="47" y="346"/>
      <point x="99" y="293"/>
      <point x="178" y="293" type="curve" smooth="yes"/>
    </contour>
    <contour>
      <point x="145" y="324"/>
      <point x="111" y="362"/>
      <point x="111" y="426" type="curve" smooth="yes"/>
      <point x="111" y="483"/>
      <point x="145" y="518"/>
      <point x="199" y="518" type="curve"/>
      <point x="246" y="504"/>
      <point x="274" y="464"/>
      <point x="274" y="415" type="curve" smooth="yes"/>
      <point x="274" y="357"/>
      <point x="242" y="324"/>
      <point x="190" y="324" type="curve" smooth="yes"/>
    </contour>
  </outline>
</glyph>
<glyph name="multiply" format="1">
  <advance width="533"/>
  <unicode hex="00D7"/>
  <outline>
    <contour>
      <point x="186" y="136"/>
      <point x="225" y="179"/>
      <point x="267" y="222" type="curve"/>
      <point x="309" y="179"/>
      <point x="349" y="136"/>
      <point x="389" y="91" type="curve"/>
      <point x="405" y="101"/>
      <point x="431" y="124"/>
      <point x="442" y="145" type="curve"/>
      <point x="397" y="185"/>
      <point x="354" y="224"/>
      <point x="312" y="266" type="curve"/>
      <point x="354" y="308"/>
      <point x="397" y="348"/>
      <point x="442" y="388" type="curve"/>
      <point x="426" y="408"/>
      <point x="412" y="425"/>
      <point x="389" y="441" type="curve"/>
      <point x="349" y="396"/>
      <point x="309" y="354"/>
      <point x="267" y="311" type="curve"/>
      <point x="225" y="354"/>
      <point x="186" y="396"/>
      <point x="146" y="441" type="curve"/>
      <point x="126" y="425"/>
      <point x="109" y="411"/>
      <point x="92" y="388" type="curve"/>
      <point x="137" y="348"/>
      <point x="180" y="308"/>
      <point x="223" y="266" type="curve"/>
      <point x="180" y="224"/>
      <point x="137" y="185"/>
      <point x="92" y="145" type="curve"/>
      <point x="102" y="128"/>
      <point x="125" y="102"/>
      <point x="146" y="91" type="curve"/>
    </contour>
  </outline>
</glyph>
<glyph name="germandbls" format="1">
  <advance width="518"/>
  <unicode hex="00DF"/>
  <outline>
    <contour>
      <point x="108" y="-92"/>
      <point x="138" y="-52"/>
      <point x="147" y="13" type="curve"/>
      <point x="182" y="-3"/>
      <point x="224" y="-11"/>
      <point x="267" y="-11" type="curve" smooth="yes"/>
      <point x="405" y="-11"/>
      <point x="477" y="46"/>
      <point x="477" y="152" type="curve" smooth="yes"/>
      <point x="477" y="239"/>
      <point x="413" y="302"/>
      <point x="320" y="304" type="curve"/>
      <point x="399" y="376" type="line" smooth="yes"/>
      <point x="445" y="418"/>
      <point x="460" y="442"/>
      <point x="460" y="479" type="curve" smooth="yes"/>
      <point x="460" y="509"/>
      <point x="448" y="534"/>
      <point x="426" y="546" type="curve"/>
      <point x="394" y="524"/>
      <point x="349" y="516"/>
      <point x="256" y="516" type="curve" smooth="yes"/>
      <point x="187" y="516"/>
      <point x="133" y="520"/>
      <point x="106" y="527" type="curve"/>
      <point x="81" y="488"/>
      <point x="58" y="448"/>
      <point x="58" y="369" type="curve" smooth="yes"/>
      <point x="58" y="252"/>
      <point x="67" y="138"/>
      <point x="67" y="70" type="curve" smooth="yes"/>
      <point x="67" y="-70"/>
      <point x="55" y="-102"/>
      <point x="20" y="-149" type="curve"/>
      <point x="32" y="-159" type="line"/>
    </contour>
    <contour>
      <point x="219" y="44"/>
      <point x="179" y="56"/>
      <point x="149" y="77" type="curve"/>
      <point x="148" y="125"/>
      <point x="143" y="193"/>
      <point x="143" y="276" type="curve" smooth="yes"/>
      <point x="143" y="344"/>
      <point x="144" y="395"/>
      <point x="146" y="434" type="curve"/>
      <point x="178" y="441"/>
      <point x="221" y="446"/>
      <point x="267" y="446" type="curve" smooth="yes"/>
      <point x="320" y="446"/>
      <point x="383" y="444"/>
      <point x="401" y="441" type="curve"/>
      <point x="229" y="284" type="line" smooth="yes"/>
      <point x="211" y="268"/>
      <point x="202" y="256"/>
      <point x="197" y="243" type="curve"/>
      <point x="197" y="236"/>
      <point x="216" y="223"/>
      <point x="227" y="223" type="curve"/>
      <point x="241" y="251"/>
      <point x="270" y="269"/>
      <point x="304" y="269" type="curve"/>
      <point x="353" y="249"/>
      <point x="381" y="207"/>
      <point x="381" y="152" type="curve" smooth="yes"/>
      <point x="381" y="84"/>
      <point x="337" y="44"/>
      <point x="262" y="44" type="curve" smooth="yes"/>
    </contour>
  </outline>
</glyph>
<glyph name="ae" format="1">
  <advance width="687"/>
  <unicode hex="00E6"/>
  <outline>
    <contour>
      <point x="178" y="-11"/>
      <point x="247" y="19"/>
      <point x="299" y="63" type="curve"/>
      <point x="326" y="14"/>
      <point x="372" y="-11"/>
      <point x="437" y="-11" type="curve" smooth="yes"/>
      <point x="509" y="-11"/>
      <point x="583" y="25"/>
      <point x="624" y="78" type="curve"/>
      <point x="617" y="97" type="line"/>
      <point x="582" y="74"/>
      <point x="532" y="61"/>
      <point x="478" y="61" type="curve" smooth="yes"/>
      <point x="406" y="61"/>
      <point x="371" y="96"/>
      <point x="363" y="177" type="curve"/>
      <point x="463" y="180"/>
      <point x="571" y="194"/>
      <point x="639" y="211" type="curve"/>
      <point x="639" y="347"/>
      <point x="583" y="418"/>
      <point x="477" y="418" type="curve" smooth="yes"/>
      <point x="423" y="418"/>
      <point x="376" y="400"/>
      <point x="342" y="368" type="curve"/>
      <point x="319" y="400"/>
      <point x="281" y="418"/>
      <point x="229" y="418" type="curve" smooth="yes"/>
      <point x="165" y="418"/>
      <point x="98" y="378"/>
      <point x="62" y="319" type="curve"/>
      <point x="70" y="300" type="line"/>
      <point x="104" y="323"/>
      <point x="148" y="337"/>
      <point x="189" y="337" type="curve" smooth="yes"/>
      <point x="265" y="337"/>
      <point x="272" y="297"/>
      <point x="272" y="214" type="curve"/>
      <point x="118" y="203"/>
      <point x="43" y="161"/>
      <point x="43" y="83" type="curve" smooth="yes"/>
      <point x="43" y="28"/>
      <point x="79" y="-11"/>
      <point x="127" y="-11" type="curve" smooth="yes"/>
    </contour>
    <contour>
      <point x="149" y="49"/>
      <point x="135" y="74"/>
      <point x="135" y="96" type="curve" smooth="yes"/>
      <point x="135" y="147"/>
      <point x="184" y="179"/>
      <point x="271" y="184" type="curve"/>
      <point x="272" y="149"/>
      <point x="277" y="118"/>
      <point x="286" y="92" type="curve"/>
      <point x="258" y="65"/>
      <point x="209" y="41"/>
      <point x="169" y="37" type="curve"/>
    </contour>
    <contour>
      <point x="362" y="285"/>
      <point x="390" y="348"/>
      <point x="430" y="372" type="curve"/>
      <point x="491" y="372"/>
      <point x="534" y="321"/>
      <point x="535" y="251" type="curve"/>
      <point x="498" y="232"/>
      <point x="426" y="216"/>
      <point x="362" y="209" type="curve"/>
    </contour>
    <contour>
      <point x="343" y="407" type="move" name="top"/>
    </contour>
    <contour>
      <point x="343" y="0" type="move" name="bottom"/>
    </contour>
  </outline>
</glyph>
<glyph name="thorn" format="1">
  <advance width="505"/>
  <unicode hex="00FE"/>
  <outline>
    <contour>
      <point x="113" y="-180"/>
      <point x="148" y="-174"/>
      <point x="184" y="-160" type="curve"/>
      <point x="175" y="-121"/>
      <point x="169" y="-67"/>
      <point x="167" y="8" type="curve"/>
      <point x="192" y="-4"/>
      <point x="220" y="-9"/>
      <point x="250" y="-9" type="curve" smooth="yes"/>
      <point x="382" y="-9"/>
      <point x="460" y="73"/>
      <point x="460" y="212" type="curve" smooth="yes"/>
      <point x="460" y="344"/>
      <point x="403" y="413"/>
      <point x="295" y="413" type="curve" smooth="yes"/>
      <point x="250" y="413"/>
      <point x="203" y="393"/>
      <point x="168" y="362" type="curve"/>
      <point x="170" y="443"/>
      <point x="173" y="507"/>
      <point x="177" y="547" type="curve"/>
      <point x="136" y="547"/>
      <point x="101" y="543"/>
      <point x="60" y="527" type="curve"/>
      <point x="73" y="480"/>
      <point x="79" y="406"/>
      <point x="79" y="297" type="curve" smooth="yes"/>
      <point x="79" y="98"/>
      <point x="74" y="-88"/>
      <point x="67" y="-180" type="curve"/>
    </contour>
    <contour>
      <point x="216" y="39"/>
      <point x="187" y="53"/>
      <point x="165" y="79" type="curve"/>
      <point x="163" y="161"/>
      <point x="164" y="227"/>
      <point x="167" y="313" type="curve"/>
      <point x="196" y="328"/>
      <point x="234" y="339"/>
      <point x="268" y="339" type="curve"/>
      <point x="324" y="318"/>
      <point x="358" y="256"/>
      <point x="358" y="177" type="curve" smooth="yes"/>
      <point x="358" y="90"/>
      <point x="317" y="39"/>
      <point x="247" y="39" type="curve" smooth="yes"/>
    </contour>
    <contour>
      <point x="250" y="407" type="move" name="top"/>
    </contour>
    <contour>
      <point x="250" y="0" type="move" name="bottom"/>
    </contour>
  </outline>
</glyph>
<glyph name="dotlessi" format="1">
  <advance width="244"/>
  <unicode hex="0131"/>
  <outline>
    <contour>
      <point x="150" y="-9"/>
      <point x="180" y="0"/>
      <point x="204" y="27" type="curve"/>
      <point x="173" y="61"/>
      <point x="165" y="84"/>
      <point x="165" y="192" type="curve" smooth="yes"/>
      <point x="165" y="294"/>
      <point x="170" y="379"/>
      <point x="177" y="417" type="curve"/>
      <point x="136" y="417"/>
      <point x="101" y="413"/>
      <point x="60" y="397" type="curve"/>
      <point x="73" y="376"/>
      <point x="79" y="322"/>
      <point x="79" y="272" type="curve" smooth="yes"/>
      <point x="79" y="208"/>
      <point x="75" y="144"/>
      <point x="75" y="73" type="curve" smooth="yes"/>
      <point x="75" y="10"/>
      <point x="91" y="-9"/>
      <point x="132" y="-9" type="curve" smooth="yes"/>
    </contour>
    <contour>
      <point x="168" y="0" type="move" name="ogonek"/>
    </contour>
    <contour>
      <point x="125" y="0" type="move" name="bottom"/>
    </contour>
    <contour>
      <point x="120" y="407" type="move" name="top"/>
    </contour>
  </outline>
</glyph>
<glyph name="Eng" format="1">
  <advance width="533"/>
  <unicode hex="014A"/>
  <outline>
    <contour>
      <point x="426" y="-122"/>
      <point x="468" y="-63"/>
      <point x="468" y="63" type="curve" smooth="yes"/>
      <point x="468" y="225" type="line" smooth="yes"/>
      <point x="468" y="330"/>
      <point x="472" y="461"/>
      <point x="475" y="527" type="curve"/>
      <point x="461" y="531"/>
      <point x="447" y="533"/>
      <point x="436" y="533" type="curve" smooth="yes"/>
      <point x="423" y="533"/>
      <point x="410" y="531"/>
      <point x="397" y="527" type="curve"/>
      <point x="405" y="497"/>
      <point x="408" y="420"/>
      <point x="408" y="300" type="curve" smooth="yes"/>
      <point x="408" y="241"/>
      <point x="407" y="173"/>
      <point x="406" y="114" type="curve"/>
      <point x="325" y="247"/>
      <point x="212" y="443"/>
      <point x="167" y="527" type="curve"/>
      <point x="143" y="531"/>
      <point x="125" y="533"/>
      <point x="109" y="533" type="curve" smooth="yes"/>
      <point x="89" y="533"/>
      <point x="52" y="526"/>
      <point x="57" y="527" type="curve"/>
      <point x="64" y="497"/>
      <point x="68" y="421"/>
      <point x="68" y="302" type="curve" smooth="yes"/>
      <point x="68" y="197"/>
      <point x="65" y="66"/>
      <point x="60" y="0" type="curve"/>
      <point x="75" y="-4"/>
      <point x="88" y="-6"/>
      <point x="100" y="-6" type="curve" smooth="yes"/>
      <point x="112" y="-6"/>
      <point x="126" y="-4"/>
      <point x="139" y="0" type="curve"/>
      <point x="132" y="30"/>
      <point x="128" y="107"/>
      <point x="128" y="227" type="curve" smooth="yes"/>
      <point x="128" y="287"/>
      <point x="129" y="353"/>
      <point x="131" y="412" type="curve"/>
      <point x="211" y="281"/>
      <point x="323" y="83"/>
      <point x="369" y="0" type="curve" smooth="yes"/>
      <point x="389" y="-37"/>
      <point x="361" y="-121"/>
      <point x="283" y="-174" type="curve"/>
      <point x="293" y="-189" type="line"/>
    </contour>
    <contour>
      <point x="268" y="527" type="move" name="top"/>
    </contour>
    <contour>
      <point x="268" y="0" type="move" name="bottom"/>
    </contour>
  </outline>
</glyph>
<glyph name="eng" format="1">
  <advance width="521"/>
  <unicode hex="014B"/>
  <outline>
    <contour>
      <point x="381" y="-111"/>
      <point x="441" y="-63"/>
      <point x="441" y="63" type="curve" smooth="yes"/>
      <point x="441" y="115"/>
      <point x="445" y="232"/>
      <point x="445" y="280" type="curve" smooth="yes"/>
      <point x="445" y="362"/>
      <point x="415" y="418"/>
      <point x="328" y="418" type="curve" smooth="yes"/>
      <point x="279" y="418"/>
      <point x="229" y="394"/>
      <point x="194" y="354" type="curve"/>
      <point x="189" y="392"/>
      <point x="170" y="414"/>
      <point x="132" y="414" type="curve" smooth="yes"/>
      <point x="114" y="414"/>
      <point x="84" y="405"/>
      <point x="60" y="378" type="curve"/>
      <point x="91" y="344"/>
      <point x="99" y="321"/>
      <point x="99" y="213" type="curve" smooth="yes"/>
      <point x="99" y="139"/>
      <point x="96" y="57"/>
      <point x="92" y="0" type="curve"/>
      <point x="115" y="-4"/>
      <point x="135" y="-6"/>
      <point x="153" y="-6" type="curve" smooth="yes"/>
      <point x="172" y="-6"/>
      <point x="192" y="-4"/>
      <point x="211" y="0" type="curve"/>
      <point x="198" y="29"/>
      <point x="191" y="82"/>
      <point x="191" y="150" type="curve" smooth="yes"/>
      <point x="191" y="214"/>
      <point x="194" y="267"/>
      <point x="195" y="308" type="curve"/>
      <point x="219" y="323"/>
      <point x="247" y="330"/>
      <point x="281" y="330" type="curve" smooth="yes"/>
      <point x="329" y="330"/>
      <point x="349" y="308"/>
      <point x="349" y="255" type="curve" smooth="yes"/>
      <point x="349" y="106" type="line" smooth="yes"/>
      <point x="349" y="-54"/>
      <point x="316" y="-109"/>
      <point x="250" y="-171" type="curve"/>
      <point x="261" y="-189" type="line"/>
    </contour>
  </outline>
</glyph>
<glyph name="florin" format="1">
  <advance width="326"/>
  <unicode hex="0192"/>
  <outline>
    <contour>
      <point x="203" y="-39"/>
      <point x="198" y="115"/>
      <point x="198" y="277" type="curve" smooth="yes"/>
      <point x="198" y="464"/>
      <point x="205" y="515"/>
      <point x="233" y="536" type="curve"/>
      <point x="261" y="536"/>
      <point x="306" y="512"/>
      <point x="347" y="475" type="curve"/>
      <point x="363" y="503"/>
      <point x="376" y="549"/>
      <point x="376" y="571" type="curve"/>
      <point x="348" y="580"/>
      <point x="315" y="585"/>
      <point x="280" y="585" type="curve" smooth="yes"/>
      <point x="126" y="585"/>
      <point x="104" y="438"/>
      <point x="104" y="351" type="curve" smooth="yes"/>
      <point x="104" y="220"/>
      <point x="108" y="133"/>
      <point x="108" y="69" type="curve" smooth="yes"/>
      <point x="108" y="-4"/>
      <point x="105" y="-55"/>
      <point x="95" y="-100" type="curve"/>
      <point x="130" y="-110"/>
      <point x="165" y="-114"/>
      <point x="210" y="-114" type="curve"/>
    </contour>
    <component base="uni0335" xOffset="-27" yOffset="70" xScale="0.943"/>
  </outline>
</glyph>
<glyph name="uni0237" format="1">
  <advance width="243"/>
  <unicode hex="0237"/>
  <outline>
    <contour>
      <point x="107" y="-111"/>
      <point x="166" y="-63"/>
      <point x="166" y="63" type="curve" smooth="yes"/>
      <point x="166" y="110"/>
      <point x="163" y="129"/>
      <point x="163" y="172" type="curve" smooth="yes"/>
      <point x="163" y="257"/>
      <point x="165" y="374"/>
      <point x="170" y="417" type="curve"/>
      <point x="131" y="417"/>
      <point x="98" y="413"/>
      <point x="59" y="397" type="curve"/>
      <point x="78" y="367"/>
      <point x="80" y="320"/>
      <point x="80" y="106" type="curve" smooth="yes"/>
      <point x="80" y="-56"/>
      <point x="47" y="-112"/>
      <point x="-19" y="-174" type="curve"/>
      <point x="-9" y="-189" type="line"/>
    </contour>
    <contour>
      <point x="121" y="407" type="move" name="top"/>
    </contour>
    <contour>
      <point x="121" y="0" type="move" name="bottom"/>
    </contour>
  </outline>
</glyph>
<glyph name="gravecomb" format="1">
  <advance width="201"/>
  <unicode hex="0300"/>
  <outline>
    <contour>
      <point x="201" y="502" type="line"/>
      <point x="151" y="524"/>
      <point x="107" y="569"/>
      <point x="99" y="607" type="curve"/>
      <point x="48" y="607"/>
      <point x="16" y="593"/>
      <point x="0" y="563" type="curve"/>
      <point x="39" y="520"/>
      <point x="107" y="490"/>
      <point x="193" y="477" type="curve"/>
    </contour>
    <contour>
      <point x="101" y="607" type="move" name="top"/>
    </contour>
    <contour>
      <point x="101" y="407" type="move" name="_top"/>
    </contour>
  </outline>
</glyph>
<glyph name="acutecomb" format="1">
  <advance width="196"/>
  <unicode hex="0301"/>
  <outline>
    <contour>
      <point x="94" y="494"/>
      <point x="157" y="522"/>
      <point x="196" y="562" type="curve"/>
      <point x="181" y="591"/>
      <point x="151" y="604"/>
      <point x="102" y="604" type="curve"/>
      <point x="93" y="568"/>
      <point x="50" y="525"/>
      <point x="0" y="504" type="curve"/>
      <point x="8" y="480" type="line"/>
    </contour>
    <contour>
      <point x="98" y="607" type="move" name="top"/>
    </contour>
    <contour>
      <point x="77" y="407" type="move" name="_top"/>
    </contour>
  </outline>
</glyph>
<glyph name="uni0302" format="1">
  <advance width="267"/>
  <unicode hex="0302"/>
  <outline>
    <contour>
      <point x="118" y="561" type="line"/>
      <point x="176" y="475" type="line"/>
      <point x="211" y="475"/>
      <point x="238" y="479"/>
      <point x="267" y="489" type="curve"/>
      <point x="231" y="531"/>
      <point x="216" y="552"/>
      <point x="180" y="617" type="curve"/>
      <point x="146" y="617"/>
      <point x="119" y="614"/>
      <point x="90" y="603" type="curve"/>
      <point x="66" y="567"/>
      <point x="28" y="517"/>
      <point x="0" y="483" type="curve"/>
      <point x="23" y="477"/>
      <point x="43" y="475"/>
      <point x="62" y="475" type="curve"/>
    </contour>
    <contour>
      <point x="133" y="617" type="move" name="top"/>
    </contour>
    <contour>
      <point x="133" y="407" type="move" name="_top"/>
    </contour>
  </outline>
</glyph>
<glyph name="tildecomb" format="1">
  <advance width="309"/>
  <unicode hex="0303"/>
  <outline>
    <contour>
      <point x="64" y="603"/>
      <point x="256" y="397"/>
      <point x="283" y="577" type="curve"/>
      <point x="262" y="589" type="line"/>
      <point x="243" y="501"/>
      <point x="52" y="707"/>
      <point x="25" y="527" type="curve"/>
      <point x="45" y="515" type="line"/>
    </contour>
    <contour>
      <point x="154" y="607" type="move" name="top"/>
    </contour>
    <contour>
      <point x="154" y="407" type="move" name="_top"/>
    </contour>
  </outline>
</glyph>
<glyph name="uni0306" format="1">
  <advance width="276"/>
  <unicode hex="0306"/>
  <outline>
    <contour>
      <point x="208" y="480"/>
      <point x="256" y="531"/>
      <point x="256" y="604" type="curve"/>
      <point x="245" y="612"/>
      <point x="226" y="617"/>
      <point x="210" y="617" type="curve"/>
      <point x="210" y="569"/>
      <point x="187" y="537"/>
      <point x="152" y="537" type="curve" smooth="yes"/>
      <point x="119" y="537"/>
      <point x="99" y="568"/>
      <point x="99" y="617" type="curve"/>
      <point x="67" y="617"/>
      <point x="43" y="612"/>
      <point x="20" y="599" type="curve"/>
      <point x="20" y="529"/>
      <point x="71" y="480"/>
      <point x="141" y="480" type="curve" smooth="yes"/>
    </contour>
    <contour>
      <point x="138" y="612" type="move" name="top"/>
    </contour>
    <contour>
      <point x="138" y="407" type="move" name="_top"/>
    </contour>
  </outline>
</glyph>
<glyph name="uni0307" format="1">
  <advance width="204"/>
  <unicode hex="0307"/>
  <outline>
    <contour>
      <point x="125" y="499"/>
      <point x="144" y="519"/>
      <point x="163" y="542" type="curve"/>
      <point x="141" y="561"/>
      <point x="121" y="581"/>
      <point x="102" y="604" type="curve"/>
      <point x="79" y="585"/>
      <point x="59" y="565"/>
      <point x="40" y="542" type="curve"/>
      <point x="63" y="523"/>
      <point x="83" y="503"/>
      <point x="102" y="480" type="curve"/>
    </contour>
    <contour>
      <point x="102" y="607" type="move" name="top"/>
    </contour>
    <contour>
      <point x="102" y="407" type="move" name="_top"/>
    </contour>
  </outline>
</glyph>
<glyph name="uni0308" format="1">
  <advance width="363"/>
  <unicode hex="0308"/>
  <outline>
    <contour>
      <point x="95" y="501"/>
      <point x="114" y="520"/>
      <point x="133" y="542" type="curve"/>
      <point x="110" y="560"/>
      <point x="91" y="579"/>
      <point x="73" y="602" type="curve"/>
      <point x="51" y="583"/>
      <point x="32" y="564"/>
      <point x="13" y="542" type="curve"/>
      <point x="36" y="524"/>
      <point x="55" y="505"/>
      <point x="73" y="483" type="curve"/>
    </contour>
    <contour>
      <point x="312" y="501"/>
      <point x="331" y="520"/>
      <point x="350" y="542" type="curve"/>
      <point x="327" y="560"/>
      <point x="308" y="579"/>
      <point x="290" y="602" type="curve"/>
      <point x="268" y="583"/>
      <point x="249" y="564"/>
      <point x="231" y="542" type="curve"/>
      <point x="253" y="524"/>
      <point x="272" y="505"/>
      <point x="290" y="483" type="curve"/>
    </contour>
    <contour>
      <point x="182" y="607" type="move" name="top"/>
    </contour>
    <contour>
      <point x="182" y="407" type="move" name="_top"/>
    </contour>
  </outline>
</glyph>
<glyph name="uni030A" format="1">
  <advance width="253"/>
  <unicode hex="030A"/>
  <outline>
    <contour>
      <point x="179" y="457"/>
      <point x="223" y="496"/>
      <point x="223" y="551" type="curve" smooth="yes"/>
      <point x="223" y="603"/>
      <point x="187" y="637"/>
      <point x="133" y="637" type="curve" smooth="yes"/>
      <point x="73" y="637"/>
      <point x="31" y="598"/>
      <point x="31" y="542" type="curve" smooth="yes"/>
      <point x="31" y="491"/>
      <point x="66" y="457"/>
      <point x="117" y="457" type="curve" smooth="yes"/>
    </contour>
    <contour>
      <point x="103" y="498"/>
      <point x="90" y="517"/>
      <point x="90" y="546" type="curve" smooth="yes"/>
      <point x="90" y="578"/>
      <point x="104" y="596"/>
      <point x="129" y="596" type="curve"/>
      <point x="151" y="590"/>
      <point x="163" y="572"/>
      <point x="163" y="546" type="curve" smooth="yes"/>
      <point x="163" y="517"/>
      <point x="149" y="498"/>
      <point x="126" y="498" type="curve" smooth="yes"/>
    </contour>
    <contour>
      <point x="127" y="645" type="move" name="top"/>
    </contour>
    <contour>
      <point x="127" y="407" type="move" name="_top"/>
    </contour>
  </outline>
</glyph>
<glyph name="uni0326" format="1">
  <advance width="169"/>
  <unicode hex="0326"/>
  <outline>
    <contour>
      <point x="115" y="-191"/>
      <point x="136" y="-134"/>
      <point x="136" y="-58" type="curve"/>
      <point x="110" y="-40" type="line"/>
      <point x="87" y="-43"/>
      <point x="53" y="-58"/>
      <point x="32" y="-75" type="curve"/>
      <point x="51" y="-98"/>
      <point x="65" y="-138"/>
      <point x="65" y="-167" type="curve" smooth="yes"/>
      <point x="65" y="-190"/>
      <point x="60" y="-213"/>
      <point x="49" y="-230" type="curve"/>
      <point x="69" y="-244" type="line"/>
    </contour>
    <contour>
      <point x="85" y="0" type="move" name="_bottom"/>
    </contour>
    <contour>
      <point x="85" y="-247" type="move" name="bottom"/>
    </contour>
  </outline>
</glyph>
<glyph name="uni0327" format="1">
  <advance width="199"/>
  <unicode hex="0327"/>
  <outline>
    <contour>
      <point x="162" y="-219"/>
      <point x="195" y="-190"/>
      <point x="195" y="-140" type="curve" smooth="yes"/>
      <point x="195" y="-92"/>
      <point x="158" y="-56"/>
      <point x="98" y="-44" type="curve"/>
      <point x="107" y="14" type="line"/>
      <point x="71" y="14" type="line"/>
      <point x="55" y="-50" type="line"/>
      <point x="105" y="-61"/>
      <point x="131" y="-87"/>
      <point x="131" y="-122" type="curve" smooth="yes"/>
      <point x="131" y="-155"/>
      <point x="110" y="-175"/>
      <point x="74" y="-175" type="curve" smooth="yes"/>
      <point x="53" y="-175"/>
      <point x="30" y="-167"/>
      <point x="13" y="-153" type="curve"/>
      <point x="5" y="-174" type="line"/>
      <point x="25" y="-200"/>
      <point x="65" y="-219"/>
      <point x="104" y="-219" type="curve" smooth="yes"/>
    </contour>
    <contour>
      <point x="86" y="0" type="move" name="_bottom"/>
    </contour>
  </outline>
</glyph>
<glyph name="uni0336" format="1">
  <advance width="639"/>
  <unicode hex="0336"/>
  <outline>
    <contour>
      <point x="142" y="196"/>
      <point x="178" y="199"/>
      <point x="304" y="199" type="curve" smooth="yes"/>
      <point x="395" y="199"/>
      <point x="508" y="196"/>
      <point x="569" y="192" type="curve"/>
      <point x="573" y="203"/>
      <point x="577" y="216"/>
      <point x="577" y="226" type="curve" smooth="yes"/>
      <point x="577" y="238"/>
      <point x="573" y="249"/>
      <point x="569" y="259" type="curve"/>
      <point x="505" y="253"/>
      <point x="460" y="250"/>
      <point x="336" y="250" type="curve" smooth="yes"/>
      <point x="243" y="250"/>
      <point x="135" y="252"/>
      <point x="70" y="257" type="curve"/>
      <point x="64" y="246"/>
      <point x="61" y="233"/>
      <point x="61" y="223" type="curve" smooth="yes"/>
      <point x="61" y="212"/>
      <point x="64" y="200"/>
      <point x="70" y="190" type="curve"/>
    </contour>
    <contour>
      <point x="320" y="224" type="move" name="_center"/>
    </contour>
  </outline>
</glyph>
<glyph name="uni0337" format="1">
  <advance width="360"/>
  <unicode hex="0337"/>
  <outline>
    <contour>
      <point x="108" y="191"/>
      <point x="129" y="206"/>
      <point x="189" y="236" type="curve" smooth="yes"/>
      <point x="231" y="258"/>
      <point x="287" y="283"/>
      <point x="316" y="293" type="curve"/>
      <point x="310" y="319"/>
      <point x="298" y="338"/>
      <point x="282" y="360" type="curve"/>
      <point x="252" y="337"/>
      <point x="232" y="322"/>
      <point x="172" y="292" type="curve" smooth="yes"/>
      <point x="129" y="270"/>
      <point x="73" y="245"/>
      <point x="44" y="235" type="curve"/>
      <point x="51" y="209"/>
      <point x="62" y="190"/>
      <point x="79" y="168" type="curve"/>
    </contour>
    <contour>
      <point x="180" y="264" type="move" name="_center"/>
    </contour>
  </outline>
</glyph>
<glyph name="uni0338" format="1">
  <advance width="338"/>
  <unicode hex="0338"/>
  <outline>
    <contour>
      <point x="43" y="-100"/>
      <point x="57" y="-96"/>
      <point x="71" y="-91" type="curve"/>
      <point x="92" y="0"/>
      <point x="282" y="454"/>
      <point x="345" y="592" type="curve"/>
      <point x="332" y="597"/>
      <point x="320" y="601"/>
      <point x="309" y="601" type="curve" smooth="yes"/>
      <point x="296" y="601"/>
      <point x="282" y="597"/>
      <point x="268" y="592" type="curve"/>
      <point x="247" y="501"/>
      <point x="57" y="47"/>
      <point x="-6" y="-91" type="curve"/>
      <point x="7" y="-96"/>
      <point x="18" y="-100"/>
      <point x="30" y="-100" type="curve" smooth="yes"/>
    </contour>
    <contour>
      <point x="169" y="251" type="move" name="_center"/>
    </contour>
  </outline>
</glyph>
<glyph name="uni03A9" format="1">
  <advance width="580"/>
  <unicode hex="03A9"/>
  <outline>
    <contour>
      <point x="87" y="-1"/>
      <point x="148" y="0"/>
      <point x="198" y="0" type="curve" smooth="yes"/>
      <point x="233" y="0" type="line"/>
      <point x="233" y="104" type="line"/>
      <point x="171" y="132"/>
      <point x="132" y="197"/>
      <point x="132" y="284" type="curve" smooth="yes"/>
      <point x="132" y="381"/>
      <point x="203" y="454"/>
      <point x="303" y="454" type="curve"/>
      <point x="395" y="438"/>
      <point x="448" y="372"/>
      <point x="448" y="277" type="curve" smooth="yes"/>
      <point x="448" y="193"/>
      <point x="412" y="133"/>
      <point x="349" y="105" type="curve"/>
      <point x="349" y="0" type="line"/>
      <point x="384" y="0" type="line" smooth="yes"/>
      <point x="434" y="0"/>
      <point x="496" y="-1"/>
      <point x="534" y="-2" type="curve"/>
      <point x="536" y="7"/>
      <point x="537" y="17"/>
      <point x="537" y="28" type="curve" smooth="yes"/>
      <point x="537" y="38"/>
      <point x="536" y="54"/>
      <point x="534" y="65" type="curve"/>
      <point x="505" y="56"/>
      <point x="450" y="46"/>
      <point x="402" y="44" type="curve"/>
      <point x="402" y="90" type="line"/>
      <point x="489" y="132"/>
      <point x="543" y="214"/>
      <point x="543" y="318" type="curve" smooth="yes"/>
      <point x="543" y="447"/>
      <point x="447" y="533"/>
      <point x="307" y="533" type="curve" smooth="yes"/>
      <point x="149" y="533"/>
      <point x="39" y="434"/>
      <point x="39" y="292" type="curve" smooth="yes"/>
      <point x="39" y="190"/>
      <point x="93" y="113"/>
      <point x="179" y="84" type="curve"/>
      <point x="179" y="44" type="line"/>
      <point x="133" y="46"/>
      <point x="81" y="56"/>
      <point x="48" y="65" type="curve"/>
      <point x="46" y="54"/>
      <point x="45" y="38"/>
      <point x="45" y="27" type="curve" smooth="yes"/>
      <point x="45" y="17"/>
      <point x="46" y="7"/>
      <point x="48" y="-2" type="curve"/>
    </contour>
  </outline>
</glyph>
<glyph name="endash" format="1">
  <advance width="537"/>
  <unicode hex="2013"/>
  <outline>
    <contour>
      <point x="115" y="151"/>
      <point x="197" y="160"/>
      <point x="275" y="160" type="curve" smooth="yes"/>
      <point x="340" y="160"/>
      <point x="405" y="159"/>
      <point x="478" y="155" type="curve"/>
      <point x="478" y="190"/>
      <point x="472" y="220"/>
      <point x="452" y="255" type="curve"/>
      <point x="419" y="245"/>
      <point x="337" y="236"/>
      <point x="260" y="236" type="curve" smooth="yes"/>
      <point x="194" y="236"/>
      <point x="130" y="237"/>
      <point x="58" y="241" type="curve"/>
      <point x="58" y="206"/>
      <point x="64" y="176"/>
      <point x="83" y="141" type="curve"/>
    </contour>
  </outline>
</glyph>
<glyph name="bullet" format="1">
  <advance width="338"/>
  <unicode hex="2022"/>
  <outline>
    <contour>
      <point x="216" y="180"/>
      <point x="257" y="221"/>
      <point x="295" y="268" type="curve"/>
      <point x="248" y="307"/>
      <point x="207" y="348"/>
      <point x="168" y="395" type="curve"/>
      <point x="121" y="356"/>
      <point x="81" y="315"/>
      <point x="42" y="268" type="curve"/>
      <point x="89" y="230"/>
      <point x="130" y="189"/>
      <point x="168" y="142" type="curve"/>
    </contour>
  </outline>
</glyph>
<glyph name="fraction" format="1">
  <advance width="51"/>
  <unicode hex="2044"/>
  <outline>
    <contour>
      <point x="-73" y="-75"/>
      <point x="-59" y="-71"/>
      <point x="-45" y="-66" type="curve"/>
      <point x="18" y="145"/>
      <point x="90" y="356"/>
      <point x="173" y="567" type="curve"/>
      <point x="160" y="572"/>
      <point x="149" y="576"/>
      <point x="137" y="576" type="curve" smooth="yes"/>
      <point x="124" y="576"/>
      <point x="110" y="572"/>
      <point x="96" y="567" type="curve"/>
      <point x="33" y="356"/>
      <point x="-39" y="145"/>
      <point x="-122" y="-66" type="curve"/>
      <point x="-109" y="-71"/>
      <point x="-97" y="-75"/>
      <point x="-86" y="-75" type="curve" smooth="yes"/>
    </contour>
  </outline>
</glyph>
<glyph name="emptyset" format="1">
  <advance width="594"/>
  <unicode hex="2205"/>
  <outline>
    <contour>
      <point x="441" y="-11"/>
      <point x="558" y="109"/>
      <point x="558" y="279" type="curve" smooth="yes"/>
      <point x="558" y="432"/>
      <point x="464" y="534"/>
      <point x="325" y="534" type="curve" smooth="yes"/>
      <point x="155" y="534"/>
      <point x="37" y="417"/>
      <point x="37" y="251" type="curve" smooth="yes"/>
      <point x="37" y="94"/>
      <point x="133" y="-11"/>
      <point x="277" y="-11" type="curve" smooth="yes"/>
    </contour>
    <contour>
      <point x="175" y="69"/>
      <point x="103" y="142"/>
      <point x="103" y="253" type="curve" smooth="yes"/>
      <point x="103" y="370"/>
      <point x="191" y="453"/>
      <point x="318" y="453" type="curve" smooth="yes"/>
      <point x="422" y="453"/>
      <point x="490" y="381"/>
      <point x="490" y="273" type="curve" smooth="yes"/>
      <point x="490" y="153"/>
      <point x="404" y="69"/>
      <point x="281" y="69" type="curve" smooth="yes"/>
    </contour>
    <component base="fraction" xOffset="271" yOffset="11"/>
  </outline>
</glyph>
<glyph name="product" format="1">
  <advance width="528"/>
  <unicode hex="220F"/>
  <outline>
    <contour>
      <point x="72" y="458"/>
      <point x="169" y="467"/>
      <point x="254" y="467" type="curve" smooth="yes"/>
      <point x="324" y="467"/>
      <point x="396" y="466"/>
      <point x="473" y="462" type="curve"/>
      <point x="490" y="498"/>
      <point x="494" y="526"/>
      <point x="494" y="561" type="curve"/>
      <point x="452" y="551"/>
      <point x="358" y="542"/>
      <point x="274" y="542" type="curve" smooth="yes"/>
      <point x="201" y="542"/>
      <point x="131" y="543"/>
      <point x="54" y="547" type="curve"/>
      <point x="37" y="511"/>
      <point x="32" y="482"/>
      <point x="32" y="448" type="curve"/>
    </contour>
    <component base="I" xOffset="22"/>
    <component base="I" xOffset="264"/>
  </outline>
</glyph>
<glyph name="summation" format="1">
  <advance width="512"/>
  <unicode hex="2211"/>
  <outline>
    <contour>
      <point x="435" y="29"/>
      <point x="440" y="56"/>
      <point x="438" y="94" type="curve"/>
      <point x="389" y="82"/>
      <point x="321" y="75"/>
      <point x="257" y="75" type="curve" smooth="yes"/>
      <point x="207" y="75"/>
      <point x="162" y="76"/>
      <point x="142" y="78" type="curve"/>
      <point x="393" y="282" type="line"/>
      <point x="339" y="324"/>
      <point x="288" y="379"/>
      <point x="220" y="467" type="curve"/>
      <point x="306" y="467"/>
      <point x="350" y="466"/>
      <point x="437" y="462" type="curve"/>
      <point x="451" y="495"/>
      <point x="455" y="522"/>
      <point x="454" y="561" type="curve"/>
      <point x="405" y="549"/>
      <point x="337" y="542"/>
      <point x="272" y="542" type="curve" smooth="yes"/>
      <point x="204" y="542"/>
      <point x="158" y="543"/>
      <point x="90" y="547" type="curve"/>
      <point x="77" y="511"/>
      <point x="72" y="483"/>
      <point x="74" y="448" type="curve"/>
      <point x="127" y="411"/>
      <point x="151" y="384"/>
      <point x="258" y="250" type="curve"/>
      <point x="158" y="175"/>
      <point x="94" y="117"/>
      <point x="67" y="80" type="curve"/>
      <point x="59" y="57"/>
      <point x="55" y="31"/>
      <point x="57" y="0" type="curve"/>
      <point x="241" y="0" type="line" smooth="yes"/>
      <point x="308" y="0"/>
      <point x="353" y="-1"/>
      <point x="422" y="-5" type="curve"/>
    </contour>
  </outline>
</glyph>
<glyph name="minus" format="1">
  <advance width="533"/>
  <unicode hex="2212"/>
  <outline>
    <contour>
      <point x="140" y="231"/>
      <point x="203" y="232"/>
      <point x="267" y="232" type="curve" smooth="yes"/>
      <point x="330" y="232"/>
      <point x="393" y="231"/>
      <point x="456" y="228" type="curve"/>
      <point x="458" y="240"/>
      <point x="460" y="255"/>
      <point x="460" y="266" type="curve" smooth="yes"/>
      <point x="460" y="279"/>
      <point x="458" y="292"/>
      <point x="456" y="303" type="curve"/>
      <point x="393" y="300"/>
      <point x="330" y="300"/>
      <point x="267" y="300" type="curve" smooth="yes"/>
      <point x="203" y="300"/>
      <point x="140" y="300"/>
      <point x="77" y="303" type="curve"/>
      <point x="74" y="291"/>
      <point x="72" y="277"/>
      <point x="72" y="265" type="curve" smooth="yes"/>
      <point x="72" y="252"/>
      <point x="74" y="239"/>
      <point x="77" y="228" type="curve"/>
    </contour>
  </outline>
</glyph>
<glyph name="radical" format="1">
  <advance width="455"/>
  <unicode hex="221A"/>
  <outline>
    <contour>
      <point x="287" y="27" type="line"/>
      <point x="336" y="199"/>
      <point x="428" y="495"/>
      <point x="481" y="647" type="curve"/>
      <point x="444" y="647"/>
      <point x="417" y="644"/>
      <point x="387" y="636" type="curve"/>
      <point x="403" y="593"/>
      <point x="359" y="428"/>
      <point x="245" y="86" type="curve"/>
      <point x="225" y="131"/>
      <point x="208" y="207"/>
      <point x="182" y="333" type="curve"/>
      <point x="131" y="333"/>
      <point x="91" y="326"/>
      <point x="50" y="312" type="curve"/>
      <point x="133" y="167"/>
      <point x="126" y="-9"/>
      <point x="218" y="-9" type="curve"/>
    </contour>
  </outline>
</glyph>
<glyph name="integral" format="1">
  <advance width="345"/>
  <unicode hex="222B"/>
  <outline>
    <contour>
      <point x="204" y="-199"/>
      <point x="217" y="-43"/>
      <point x="217" y="36" type="curve" smooth="yes"/>
      <point x="217" y="152"/>
      <point x="214" y="225"/>
      <point x="214" y="276" type="curve" smooth="yes"/>
      <point x="214" y="468"/>
      <point x="221" y="522"/>
      <point x="249" y="543" type="curve"/>
      <point x="276" y="544"/>
      <point x="324" y="518"/>
      <point x="363" y="480" type="curve"/>
      <point x="379" y="509"/>
      <point x="392" y="551"/>
      <point x="392" y="571" type="curve"/>
      <point x="364" y="580"/>
      <point x="332" y="585"/>
      <point x="299" y="585" type="curve" smooth="yes"/>
      <point x="140" y="585"/>
      <point x="126" y="429"/>
      <point x="126" y="350" type="curve" smooth="yes"/>
      <point x="126" y="234"/>
      <point x="130" y="161"/>
      <point x="130" y="110" type="curve" smooth="yes"/>
      <point x="130" y="-83"/>
      <point x="123" y="-136"/>
      <point x="95" y="-157" type="curve"/>
      <point x="67" y="-158"/>
      <point x="19" y="-132"/>
      <point x="-19" y="-94" type="curve"/>
      <point x="-36" y="-123"/>
      <point x="-48" y="-166"/>
      <point x="-48" y="-185" type="curve"/>
      <point x="-21" y="-194"/>
      <point x="11" y="-199"/>
      <point x="45" y="-199" type="curve" smooth="yes"/>
    </contour>
  </outline>
</glyph>
<glyph name="lozenge" format="1">
  <advance width="494"/>
  <unicode hex="25CA"/>
  <outline>
    <contour>
      <point x="265" y="-8"/>
      <point x="283" y="-5"/>
      <point x="300" y="0" type="curve"/>
      <point x="342" y="88"/>
      <point x="392" y="176"/>
      <point x="453" y="264" type="curve"/>
      <point x="392" y="352"/>
      <point x="342" y="439"/>
      <point x="300" y="527" type="curve"/>
      <point x="283" y="532"/>
      <point x="265" y="535"/>
      <point x="248" y="535" type="curve" smooth="yes"/>
      <point x="230" y="535"/>
      <point x="213" y="532"/>
      <point x="195" y="527" type="curve"/>
      <point x="153" y="439"/>
      <point x="103" y="352"/>
      <point x="42" y="264" type="curve"/>
      <point x="103" y="176"/>
      <point x="153" y="88"/>
      <point x="195" y="0" type="curve"/>
      <point x="213" y="-5"/>
      <point x="230" y="-8"/>
      <point x="248" y="-8" type="curve" smooth="yes"/>
    </contour>
    <contour>
      <point x="133" y="264" type="line"/>
      <point x="247" y="460" type="line"/>
      <point x="361" y="264" type="line"/>
      <point x="247" y="67" type="line"/>
    </contour>
  </outline>
</glyph>
<glyph name="fi" format="1">
  <advance width="525"/>
  <unicode hex="FB01"/>
  <outline>
    <contour>
      <point x="169" y="-77"/>
      <point x="193" y="-35"/>
      <point x="193" y="63" type="curve" smooth="yes"/>
      <point x="193" y="111"/>
      <point x="186" y="184"/>
      <point x="186" y="276" type="curve" smooth="yes"/>
      <point x="186" y="346" type="line"/>
      <point x="361" y="346" type="line"/>
      <point x="362" y="323"/>
      <point x="363" y="297"/>
      <point x="363" y="272" type="curve" smooth="yes"/>
      <point x="363" y="208"/>
      <point x="359" y="144"/>
      <point x="359" y="73" type="curve" smooth="yes"/>
      <point x="359" y="10"/>
      <point x="374" y="-9"/>
      <point x="412" y="-9" type="curve" smooth="yes"/>
      <point x="430" y="-9"/>
      <point x="458" y="0"/>
      <point x="481" y="27" type="curve"/>
      <point x="450" y="61"/>
      <point x="442" y="84"/>
      <point x="442" y="192" type="curve" smooth="yes"/>
      <point x="442" y="294"/>
      <point x="447" y="379"/>
      <point x="454" y="417" type="curve"/>
      <point x="420" y="417"/>
      <point x="388" y="413"/>
      <point x="354" y="397" type="curve"/>
      <point x="188" y="397" type="line"/>
      <point x="190" y="493"/>
      <point x="199" y="527"/>
      <point x="221" y="543" type="curve"/>
      <point x="259" y="544"/>
      <point x="323" y="514"/>
      <point x="376" y="470" type="curve"/>
      <point x="392" y="499"/>
      <point x="404" y="541"/>
      <point x="404" y="561" type="curve"/>
      <point x="364" y="576"/>
      <point x="320" y="585"/>
      <point x="271" y="585" type="curve" smooth="yes"/>
      <point x="180" y="585"/>
      <point x="114" y="512"/>
      <point x="98" y="402" type="curve"/>
      <point x="81" y="389"/>
      <point x="62" y="379"/>
      <point x="41" y="368" type="curve"/>
      <point x="41" y="350"/>
      <point x="51" y="344"/>
      <point x="98" y="343" type="curve"/>
      <point x="114" y="-43"/>
      <point x="110" y="-80"/>
      <point x="53" y="-149" type="curve"/>
      <point x="64" y="-159" type="line"/>
    </contour>
    <contour>
      <point x="458" y="0" type="move" name="ogonek"/>
    </contour>
    <contour>
      <point x="145" y="0" type="move" name="bottom"/>
    </contour>
    <contour>
      <point x="145" y="407" type="move" name="top"/>
    </contour>
  </outline>
</glyph>
<glyph name="fl" format="1">
  <advance width="525"/>
  <unicode hex="FB02"/>
  <outline>
    <contour>
      <point x="169" y="-77"/>
      <point x="193" y="-35"/>
      <point x="193" y="63" type="curve" smooth="yes"/>
      <point x="193" y="111"/>
      <point x="186" y="184"/>
      <point x="186" y="276" type="curve" smooth="yes"/>
      <point x="186" y="346" type="line"/>
      <point x="232" y="345"/>
      <point x="262" y="341"/>
      <point x="286" y="334" type="curve"/>
      <point x="298" y="358"/>
      <point x="303" y="377"/>
      <point x="303" y="404" type="curve"/>
      <point x="278" y="399"/>
      <point x="237" y="397"/>
      <point x="188" y="396" type="curve"/>
      <point x="190" y="493"/>
      <point x="199" y="527"/>
      <point x="221" y="543" type="curve"/>
      <point x="261" y="544"/>
      <point x="305" y="528"/>
      <point x="350" y="502" type="curve"/>
      <point x="358" y="455"/>
      <point x="363" y="387"/>
      <point x="363" y="297" type="curve" smooth="yes"/>
      <point x="363" y="208"/>
      <point x="359" y="144"/>
      <point x="359" y="73" type="curve" smooth="yes"/>
      <point x="359" y="10"/>
      <point x="374" y="-9"/>
      <point x="412" y="-9" type="curve" smooth="yes"/>
      <point x="430" y="-9"/>
      <point x="458" y="0"/>
      <point x="481" y="27" type="curve"/>
      <point x="450" y="61"/>
      <point x="442" y="84"/>
      <point x="442" y="192" type="curve" smooth="yes"/>
      <point x="442" y="356"/>
      <point x="447" y="485"/>
      <point x="454" y="547" type="curve"/>
      <point x="397" y="571"/>
      <point x="347" y="585"/>
      <point x="284" y="585" type="curve" smooth="yes"/>
      <point x="163" y="585"/>
      <point x="113" y="512"/>
      <point x="98" y="402" type="curve"/>
      <point x="81" y="389"/>
      <point x="62" y="379"/>
      <point x="41" y="368" type="curve"/>
      <point x="41" y="350"/>
      <point x="51" y="344"/>
      <point x="98" y="343" type="curve"/>
      <point x="114" y="-43"/>
      <point x="110" y="-80"/>
      <point x="53" y="-149" type="curve"/>
      <point x="64" y="-159" type="line"/>
    </contour>
  </outline>
</glyph>
<glyph name="caroncomb.alt" format="1">
  <advance width="170"/>
  <outline>
    <component base="uni0326" yOffset="665"/>
    <contour>
      <point x="85" y="407" type="move" name="_topright"/>
    </contour>
  </outline>
</glyph>
<glyph name="eight.dnom" format="1">
  <advance width="347"/>
  <outline>
    <contour>
      <point x="242" y="-6"/>
      <point x="299" y="27"/>
      <point x="299" y="79" type="curve" smooth="yes"/>
      <point x="299" y="114"/>
      <point x="273" y="133"/>
      <point x="241" y="145" type="curve"/>
      <point x="272" y="162"/>
      <point x="290" y="183"/>
      <point x="290" y="210" type="curve" smooth="yes"/>
      <point x="290" y="250"/>
      <point x="248" y="277"/>
      <point x="186" y="277" type="curve" smooth="yes"/>
      <point x="111" y="277"/>
      <point x="58" y="245"/>
      <point x="58" y="198" type="curve" smooth="yes"/>
      <point x="58" y="165"/>
      <point x="78" y="146"/>
      <point x="106" y="133" type="curve"/>
      <point x="70" y="117"/>
      <point x="49" y="92"/>
      <point x="49" y="65" type="curve" smooth="yes"/>
      <point x="49" y="22"/>
      <point x="96" y="-6"/>
      <point x="165" y="-6" type="curve" smooth="yes"/>
    </contour>
    <contour>
      <point x="137" y="32"/>
      <point x="114" y="48"/>
      <point x="114" y="70" type="curve" smooth="yes"/>
      <point x="114" y="90"/>
      <point x="125" y="106"/>
      <point x="144" y="117" type="curve"/>
      <point x="189" y="103"/>
      <point x="233" y="94"/>
      <point x="233" y="66" type="curve" smooth="yes"/>
      <point x="233" y="46"/>
      <point x="211" y="32"/>
      <point x="171" y="32" type="curve" smooth="yes"/>
    </contour>
    <contour>
      <point x="158" y="170"/>
      <point x="118" y="179"/>
      <point x="118" y="208" type="curve" smooth="yes"/>
      <point x="118" y="230"/>
      <point x="144" y="242"/>
      <point x="179" y="242" type="curve"/>
      <point x="211" y="237"/>
      <point x="228" y="223"/>
      <point x="228" y="204" type="curve" smooth="yes"/>
      <point x="228" y="184"/>
      <point x="219" y="169"/>
      <point x="200" y="158" type="curve"/>
    </contour>
  </outline>
</glyph>
<glyph name="f_j" format="1">
  <advance width="525"/>
  <outline>
    <contour>
      <point x="402" y="-111"/>
      <point x="460" y="-63"/>
      <point x="460" y="63" type="curve" smooth="yes"/>
      <point x="460" y="110"/>
      <point x="457" y="129"/>
      <point x="457" y="172" type="curve" smooth="yes"/>
      <point x="457" y="257"/>
      <point x="459" y="374"/>
      <point x="464" y="417" type="curve"/>
      <point x="425" y="417"/>
      <point x="392" y="413"/>
      <point x="354" y="397" type="curve"/>
      <point x="188" y="397" type="line"/>
      <point x="190" y="493"/>
      <point x="199" y="527"/>
      <point x="221" y="543" type="curve"/>
      <point x="259" y="544"/>
      <point x="323" y="514"/>
      <point x="376" y="470" type="curve"/>
      <point x="392" y="499"/>
      <point x="404" y="541"/>
      <point x="404" y="561" type="curve"/>
      <point x="364" y="576"/>
      <point x="320" y="585"/>
      <point x="271" y="585" type="curve" smooth="yes"/>
      <point x="180" y="585"/>
      <point x="114" y="512"/>
      <point x="98" y="402" type="curve"/>
      <point x="81" y="389"/>
      <point x="62" y="379"/>
      <point x="41" y="368" type="curve"/>
      <point x="41" y="350"/>
      <point x="51" y="344"/>
      <point x="98" y="343" type="curve"/>
      <point x="114" y="-43"/>
      <point x="110" y="-80"/>
      <point x="53" y="-149" type="curve"/>
      <point x="64" y="-159" type="line"/>
      <point x="169" y="-77"/>
      <point x="193" y="-35"/>
      <point x="193" y="63" type="curve" smooth="yes"/>
      <point x="193" y="111"/>
      <point x="186" y="184"/>
      <point x="186" y="276" type="curve" smooth="yes"/>
      <point x="186" y="346" type="line"/>
      <point x="370" y="346" type="line"/>
      <point x="374" y="306"/>
      <point x="375" y="237"/>
      <point x="375" y="106" type="curve" smooth="yes"/>
      <point x="375" y="-56"/>
      <point x="342" y="-112"/>
      <point x="276" y="-174" type="curve"/>
      <point x="285" y="-189" type="line"/>
    </contour>
  </outline>
</glyph>
<glyph name="f_t" format="1">
  <advance width="576"/>
  <outline>
    <contour>
      <point x="168" y="-77"/>
      <point x="193" y="-35"/>
      <point x="192" y="63" type="curve" smooth="yes"/>
      <point x="193" y="139"/>
      <point x="186" y="150"/>
      <point x="186" y="346" type="curve"/>
      <point x="370" y="346" type="line"/>
      <point x="371" y="330"/>
      <point x="372" y="314"/>
      <point x="372" y="303" type="curve" smooth="yes"/>
      <point x="372" y="210"/>
      <point x="368" y="144"/>
      <point x="368" y="70" type="curve" smooth="yes"/>
      <point x="368" y="12"/>
      <point x="385" y="-9"/>
      <point x="432" y="-9" type="curve" smooth="yes"/>
      <point x="475" y="-9"/>
      <point x="522" y="16"/>
      <point x="546" y="53" type="curve"/>
      <point x="540" y="76" type="line"/>
      <point x="517" y="70"/>
      <point x="491" y="67"/>
      <point x="466" y="65" type="curve"/>
      <point x="456" y="105"/>
      <point x="451" y="169"/>
      <point x="451" y="252" type="curve" smooth="yes"/>
      <point x="451" y="285"/>
      <point x="452" y="316"/>
      <point x="454" y="346" type="curve"/>
      <point x="491" y="345"/>
      <point x="518" y="341"/>
      <point x="537" y="334" type="curve"/>
      <point x="549" y="358"/>
      <point x="554" y="377"/>
      <point x="554" y="404" type="curve"/>
      <point x="532" y="400"/>
      <point x="497" y="397"/>
      <point x="456" y="396" type="curve"/>
      <point x="455" y="416"/>
      <point x="453" y="442"/>
      <point x="451" y="466" type="curve"/>
      <point x="427" y="469" type="line"/>
      <point x="398" y="415"/>
      <point x="347" y="397"/>
      <point x="302" y="397" type="curve" smooth="yes"/>
      <point x="187" y="397" type="line"/>
      <point x="190" y="491"/>
      <point x="199" y="527"/>
      <point x="221" y="543" type="curve"/>
      <point x="248" y="544"/>
      <point x="296" y="518"/>
      <point x="335" y="480" type="curve"/>
      <point x="350" y="509"/>
      <point x="364" y="551"/>
      <point x="363" y="571" type="curve"/>
      <point x="335" y="580"/>
      <point x="303" y="585"/>
      <point x="270" y="585" type="curve" smooth="yes"/>
      <point x="180" y="585"/>
      <point x="114" y="514"/>
      <point x="98" y="401" type="curve"/>
      <point x="81" y="390"/>
      <point x="64" y="380"/>
      <point x="41" y="368" type="curve"/>
      <point x="41" y="349"/>
      <point x="52" y="344"/>
      <point x="98" y="343" type="curve"/>
      <point x="113" y="-39"/>
      <point x="110" y="-79"/>
      <point x="53" y="-149" type="curve"/>
      <point x="64" y="-159" type="line"/>
    </contour>
  </outline>
</glyph>
<glyph name="four.dnom" format="1">
  <advance width="348"/>
  <outline>
    <contour>
      <point x="250" y="-3"/>
      <point x="262" y="-2"/>
      <point x="271" y="0" type="curve"/>
      <point x="268" y="19"/>
      <point x="266" y="39"/>
      <point x="266" y="58" type="curve"/>
      <point x="286" y="58" type="line"/>
      <point x="295" y="75"/>
      <point x="301" y="98"/>
      <point x="301" y="118" type="curve"/>
      <point x="293" y="115"/>
      <point x="276" y="113"/>
      <point x="264" y="111" type="curve"/>
      <point x="264" y="178" type="line"/>
      <point x="252" y="180"/>
      <point x="241" y="181"/>
      <point x="231" y="181" type="curve"/>
      <point x="200" y="109" type="line"/>
      <point x="106" y="109" type="line"/>
      <point x="164" y="193"/>
      <point x="215" y="245"/>
      <point x="243" y="268" type="curve"/>
      <point x="220" y="280"/>
      <point x="196" y="284"/>
      <point x="167" y="284" type="curve"/>
      <point x="105" y="202"/>
      <point x="50" y="113"/>
      <point x="50" y="79" type="curve" smooth="yes"/>
      <point x="50" y="65"/>
      <point x="55" y="55"/>
      <point x="65" y="48" type="curve"/>
      <point x="88" y="56"/>
      <point x="112" y="59"/>
      <point x="200" y="59" type="curve"/>
      <point x="200" y="39"/>
      <point x="199" y="19"/>
      <point x="198" y="0" type="curve"/>
      <point x="214" y="-2"/>
      <point x="228" y="-3"/>
      <point x="241" y="-3" type="curve" smooth="yes"/>
    </contour>
  </outline>
</glyph>
<glyph name="six.dnom" format="1">
  <advance width="348"/>
  <outline>
    <contour>
      <point x="241" y="-5"/>
      <point x="294" y="33"/>
      <point x="294" y="87" type="curve" smooth="yes"/>
      <point x="294" y="142"/>
      <point x="252" y="178"/>
      <point x="191" y="178" type="curve" smooth="yes"/>
      <point x="164" y="178"/>
      <point x="139" y="170"/>
      <point x="117" y="155" type="curve"/>
      <point x="125" y="196"/>
      <point x="145" y="223"/>
      <point x="178" y="233" type="curve"/>
      <point x="197" y="233"/>
      <point x="229" y="217"/>
      <point x="256" y="196" type="curve"/>
      <point x="269" y="210"/>
      <point x="281" y="243"/>
      <point x="281" y="265" type="curve"/>
      <point x="262" y="273"/>
      <point x="235" y="277"/>
      <point x="206" y="277" type="curve" smooth="yes"/>
      <point x="115" y="277"/>
      <point x="48" y="226"/>
      <point x="48" y="126" type="curve" smooth="yes"/>
      <point x="48" y="48"/>
      <point x="97" y="-5"/>
      <point x="169" y="-5" type="curve" smooth="yes"/>
    </contour>
    <contour>
      <point x="135" y="32"/>
      <point x="112" y="65"/>
      <point x="112" y="117" type="curve"/>
      <point x="127" y="128"/>
      <point x="144" y="136"/>
      <point x="163" y="141" type="curve"/>
      <point x="202" y="141"/>
      <point x="228" y="120"/>
      <point x="228" y="89" type="curve" smooth="yes"/>
      <point x="228" y="55"/>
      <point x="207" y="32"/>
      <point x="175" y="32" type="curve" smooth="yes"/>
    </contour>
  </outline>
</glyph>
<glyph name="three.dnom" format="1">
  <advance width="348"/>
  <outline>
    <contour>
      <point x="242" y="-6"/>
      <point x="286" y="25"/>
      <point x="286" y="82" type="curve" smooth="yes"/>
      <point x="286" y="123"/>
      <point x="249" y="156"/>
      <point x="199" y="162" type="curve"/>
      <point x="257" y="201"/>
      <point x="279" y="216"/>
      <point x="279" y="246" type="curve" smooth="yes"/>
      <point x="279" y="261"/>
      <point x="270" y="276"/>
      <point x="258" y="284" type="curve"/>
      <point x="237" y="273"/>
      <point x="207" y="268"/>
      <point x="152" y="268" type="curve" smooth="yes"/>
      <point x="112" y="268"/>
      <point x="80" y="270"/>
      <point x="66" y="274" type="curve"/>
      <point x="66" y="250"/>
      <point x="71" y="220"/>
      <point x="80" y="202" type="curve"/>
      <point x="93" y="209"/>
      <point x="109" y="211"/>
      <point x="138" y="211" type="curve" smooth="yes"/>
      <point x="224" y="211" type="line"/>
      <point x="135" y="150" type="line" smooth="yes"/>
      <point x="123" y="141"/>
      <point x="115" y="131"/>
      <point x="112" y="123" type="curve" smooth="yes"/>
      <point x="112" y="118"/>
      <point x="127" y="109"/>
      <point x="137" y="109" type="curve"/>
      <point x="146" y="121"/>
      <point x="163" y="132"/>
      <point x="178" y="132" type="curve"/>
      <point x="208" y="124"/>
      <point x="224" y="105"/>
      <point x="224" y="81" type="curve" smooth="yes"/>
      <point x="224" y="49"/>
      <point x="198" y="31"/>
      <point x="151" y="31" type="curve" smooth="yes"/>
      <point x="115" y="31"/>
      <point x="83" y="43"/>
      <point x="65" y="63" type="curve"/>
      <point x="58" y="45"/>
      <point x="55" y="32"/>
      <point x="55" y="18" type="curve"/>
      <point x="83" y="4"/>
      <point x="119" y="-6"/>
      <point x="158" y="-6" type="curve" smooth="yes"/>
    </contour>
  </outline>
</glyph>
